<?xml version="1.0" encoding="utf-8"?>
<!-- Generator: Adobe Illustrator 16.0.4, SVG Export Plug-In . SVG Version: 6.00 Build 0)  -->
<!DOCTYPE svg PUBLIC "-//W3C//DTD SVG 1.1//EN" "http://www.w3.org/Graphics/SVG/1.1/DTD/svg11.dtd">
<svg version="1.1" id="Layer_1" xmlns="http://www.w3.org/2000/svg" xmlns:xlink="http://www.w3.org/1999/xlink" x="0px" y="0px"
	 width="51.225px" height="51.622px" viewBox="0 0 51.225 51.622" enable-background="new 0 0 51.225 51.622" xml:space="preserve">
<path fill="#109298" d="M26.001,4.173c-12.502,0-22.672,8.344-22.672,18.609c0,4.835,2.333,9.511,6.44,12.976
	c-0.931,2.112-2.173,4.109-3.704,5.934c-0.354,0.43-0.433,1.021-0.199,1.523c0.232,0.502,0.739,0.82,1.292,0.82
	c4.098,0,7.565-1.004,11.504-3.318c1.91,0.295,5.682,0.68,7.338,0.68c12.504,0,22.674-8.356,22.674-18.621
	C48.675,12.518,38.505,4.173,26.001,4.173z M26.001,38.541c-1.639,0-5.905-0.44-7.349-0.725c-0.346-0.056-0.71,0.006-1.013,0.184
	c-2.662,1.629-4.983,2.562-7.468,2.957c1.071-1.623,1.962-3.336,2.656-5.121c0.229-0.597,0.042-1.271-0.469-1.656
	c-3.984-3.023-6.174-7.074-6.174-11.397c0-8.688,8.889-15.756,19.816-15.756S45.82,14.094,45.82,22.782
	C45.82,31.468,36.927,38.541,26.001,38.541z"/>
</svg>
