<?xml version="1.0" encoding="utf-8"?>
<!-- Generator: Adobe Illustrator 16.0.4, SVG Export Plug-In . SVG Version: 6.00 Build 0)  -->
<!DOCTYPE svg PUBLIC "-//W3C//DTD SVG 1.1//EN" "http://www.w3.org/Graphics/SVG/1.1/DTD/svg11.dtd">
<svg version="1.1" id="Layer_1" xmlns="http://www.w3.org/2000/svg" xmlns:xlink="http://www.w3.org/1999/xlink" x="0px" y="0px"
	 width="50px" height="50px" viewBox="0 0 50 50" enable-background="new 0 0 50 50" xml:space="preserve">
<g>
	<g>
		<path fill="#109298" d="M25,18.58c-0.391,0-0.78-0.16-1.061-0.44c-0.279-0.27-0.439-0.66-0.439-1.06c0-0.39,0.16-0.78,0.439-1.06
			c0.561-0.56,1.561-0.56,2.12,0c0.28,0.28,0.44,0.67,0.44,1.06c0,0.4-0.16,0.78-0.44,1.06C25.779,18.42,25.39,18.58,25,18.58z"/>
	</g>
	<g>
		<path fill="#109298" d="M24.51,37.37L24.51,37.37c-0.79-0.271-1.21-1.12-0.94-1.9l0,0c0.261-0.79,1.12-1.21,1.9-0.939l0,0l0,0l0,0
			c0.78,0.26,1.2,1.12,0.94,1.899l0,0c-0.21,0.631-0.801,1.021-1.42,1.021l0,0C24.83,37.45,24.67,37.42,24.51,37.37z M29.09,34.2
			c-0.42-0.72-0.17-1.64,0.551-2.05l0,0c0.719-0.41,1.629-0.16,2.049,0.56l0,0c0.41,0.72,0.16,1.63-0.56,2.05l0,0
			c-0.229,0.131-0.489,0.19-0.739,0.19l0,0C29.87,34.95,29.359,34.68,29.09,34.2z M18.85,34.74L18.85,34.74
			c-0.72-0.41-0.97-1.32-0.56-2.04l0,0c0.42-0.72,1.33-0.97,2.05-0.55l0,0l0,0l0,0c0.72,0.41,0.97,1.319,0.56,2.039l0,0
			c-0.279,0.48-0.79,0.75-1.3,0.75l0,0C19.34,34.939,19.08,34.88,18.85,34.74z M34.09,31c-0.57-0.6-0.529-1.55,0.07-2.12l0,0
			c0.609-0.569,1.561-0.53,2.119,0.07l0,0c0.57,0.61,0.539,1.55-0.069,2.12l0,0c-0.29,0.27-0.66,0.41-1.021,0.41l0,0
			C34.779,31.48,34.391,31.32,34.09,31z M13.77,31.061c-0.6-0.57-0.63-1.521-0.069-2.121l0,0c0.569-0.609,1.52-0.64,2.119-0.069l0,0
			c0.61,0.569,0.641,1.51,0.07,2.12l0,0c-0.29,0.31-0.689,0.47-1.09,0.47l0,0C14.43,31.46,14.06,31.33,13.77,31.061z M38.068,26.6
			c-0.76-0.33-1.108-1.209-0.789-1.97l0,0c0.33-0.76,1.211-1.11,1.971-0.79l0,0c0.76,0.32,1.109,1.21,0.79,1.971l0,0
			c-0.24,0.569-0.79,0.909-1.38,0.909l0,0C38.471,26.72,38.27,26.68,38.068,26.6z M9.939,25.78c-0.319-0.76,0.04-1.64,0.801-1.96
			l0,0c0.76-0.33,1.64,0.03,1.97,0.79l0,0c0.32,0.77-0.04,1.65-0.8,1.97l0,0c-0.19,0.08-0.391,0.12-0.58,0.12l0,0
			C10.74,26.7,10.189,26.359,9.939,25.78z M37.84,19.68c-0.15-0.81,0.391-1.59,1.2-1.74l0,0c0.819-0.15,1.601,0.39,1.75,1.2l0,0
			c0.149,0.82-0.392,1.6-1.2,1.75l0,0c-0.1,0.02-0.189,0.03-0.279,0.03l0,0C38.6,20.92,37.971,20.41,37.84,19.68z M10.42,20.87
			c-0.82-0.15-1.36-0.94-1.21-1.75l0,0c0.149-0.82,0.939-1.35,1.75-1.2l0,0c0.81,0.15,1.35,0.93,1.2,1.75l0,0l0,0l0,0
			c-0.13,0.72-0.761,1.22-1.471,1.22l0,0C10.6,20.89,10.51,20.88,10.42,20.87z M35.391,16.09c-0.75-0.37-1.051-1.26-0.689-2.01l0,0
			c0.359-0.74,1.26-1.05,2.01-0.69l0,0c0.74,0.37,1.051,1.27,0.689,2.01l0,0c-0.271,0.53-0.801,0.84-1.351,0.84l0,0
			C35.818,16.24,35.6,16.19,35.391,16.09z M12.62,15.38c-0.36-0.74-0.051-1.64,0.699-2l0,0c0.74-0.36,1.641-0.05,2,0.69l0,0
			c0.36,0.75,0.051,1.65-0.699,2.01l0,0c-0.21,0.1-0.431,0.15-0.65,0.15l0,0C13.41,16.23,12.88,15.92,12.62,15.38z M19.42,15.83
			L19.42,15.83L19.42,15.83c-0.8-0.2-1.3-1.01-1.101-1.81l0,0c0.2-0.81,1.011-1.3,1.82-1.1l0,0c0.8,0.2,1.29,1.01,1.09,1.81l0,0
			c-0.17,0.69-0.779,1.15-1.449,1.15l0,0C19.66,15.88,19.54,15.86,19.42,15.83z M28.779,14.73c-0.189-0.81,0.301-1.62,1.101-1.82
			h0.011c0.799-0.19,1.609,0.3,1.811,1.1l0,0c0.199,0.81-0.301,1.62-1.102,1.82l0,0l0,0l0,0c-0.119,0.03-0.24,0.04-0.358,0.04l0,0
			C29.561,15.87,28.95,15.41,28.779,14.73z"/>
	</g>
</g>
</svg>
