<?xml version="1.0" encoding="utf-8"?>
<!-- Generator: Adobe Illustrator 16.0.4, SVG Export Plug-In . SVG Version: 6.00 Build 0)  -->
<!DOCTYPE svg PUBLIC "-//W3C//DTD SVG 1.1//EN" "http://www.w3.org/Graphics/SVG/1.1/DTD/svg11.dtd">
<svg version="1.1" id="Layer_1" xmlns="http://www.w3.org/2000/svg" xmlns:xlink="http://www.w3.org/1999/xlink" x="0px" y="0px"
	 width="120.407px" height="39.796px" viewBox="0 0 120.407 39.796" enable-background="new 0 0 120.407 39.796"
	 xml:space="preserve">
<g>
	<g>
		<path fill-rule="evenodd" clip-rule="evenodd" fill="#FF9900" d="M49.268,27.787c-3.924,2.896-9.614,4.438-14.514,4.438
			c-6.867,0-13.05-2.538-17.729-6.764c-0.367-0.332-0.04-0.785,0.402-0.527c5.048,2.938,11.291,4.707,17.739,4.707
			c4.351,0,9.132-0.903,13.532-2.77C49.361,26.59,49.918,27.309,49.268,27.787z"/>
		<path fill-rule="evenodd" clip-rule="evenodd" fill="#FF9900" d="M50.901,25.924c-0.502-0.644-3.318-0.305-4.583-0.153
			c-0.384,0.046-0.442-0.288-0.098-0.531c2.246-1.578,5.928-1.123,6.355-0.594c0.432,0.532-0.113,4.224-2.219,5.984
			c-0.323,0.271-0.632,0.127-0.488-0.231C50.343,29.215,51.403,26.566,50.901,25.924z"/>
	</g>
	<g>
		<path fill-rule="evenodd" clip-rule="evenodd" d="M46.407,14.092V12.56c0.001-0.233,0.177-0.39,0.389-0.389l6.871-0.001
			c0.221,0,0.396,0.16,0.396,0.387v1.315c-0.002,0.221-0.188,0.509-0.517,0.965l-3.56,5.083c1.321-0.031,2.719,0.166,3.919,0.842
			c0.271,0.152,0.343,0.377,0.364,0.598v1.636c0,0.226-0.246,0.487-0.505,0.351c-2.115-1.107-4.923-1.229-7.261,0.014
			c-0.239,0.127-0.49-0.13-0.49-0.355v-1.555c0-0.249,0.005-0.674,0.257-1.054l4.123-5.917h-3.591
			C46.585,14.479,46.409,14.322,46.407,14.092z"/>
		<path fill-rule="evenodd" clip-rule="evenodd" d="M21.34,23.668h-2.09c-0.198-0.013-0.358-0.162-0.374-0.354l0.002-10.729
			c0-0.214,0.18-0.386,0.402-0.386h1.947c0.204,0.01,0.367,0.164,0.38,0.359v1.401h0.039c0.508-1.355,1.465-1.987,2.752-1.987
			c1.308,0,2.127,0.632,2.713,1.987c0.508-1.355,1.658-1.987,2.888-1.987c0.878,0,1.835,0.361,2.42,1.175
			c0.664,0.902,0.527,2.212,0.527,3.363l-0.002,6.771c0,0.215-0.18,0.386-0.403,0.386h-2.088c-0.209-0.014-0.375-0.179-0.375-0.385
			l-0.001-5.688c0-0.451,0.039-1.58-0.058-2.01c-0.157-0.723-0.625-0.925-1.229-0.925c-0.508,0-1.035,0.338-1.249,0.88
			c-0.215,0.542-0.195,1.445-0.195,2.055v5.688c0,0.215-0.181,0.386-0.403,0.386h-2.089c-0.209-0.014-0.375-0.179-0.375-0.385
			l-0.002-5.688c0-1.196,0.195-2.957-1.288-2.957c-1.503,0-1.443,1.716-1.443,2.957l-0.001,5.688
			C21.744,23.497,21.563,23.668,21.34,23.668z"/>
		<path fill-rule="evenodd" clip-rule="evenodd" d="M59.979,11.973c3.104,0,4.781,2.665,4.781,6.051
			c0,3.274-1.854,5.871-4.781,5.871c-3.045,0-4.703-2.664-4.703-5.983C55.276,14.569,56.955,11.973,59.979,11.973z M59.999,14.163
			c-1.542,0-1.64,2.1-1.64,3.409s-0.02,4.109,1.62,4.109c1.62,0,1.698-2.258,1.698-3.635c0-0.903-0.039-1.987-0.313-2.845
			C61.131,14.457,60.662,14.163,59.999,14.163z"/>
		<path fill-rule="evenodd" clip-rule="evenodd" d="M68.784,23.668h-2.083c-0.209-0.014-0.375-0.179-0.375-0.385l-0.003-10.734
			c0.018-0.195,0.191-0.35,0.401-0.35h1.939c0.183,0.009,0.333,0.134,0.372,0.3v1.642h0.039c0.586-1.468,1.404-2.168,2.849-2.168
			c0.937,0,1.854,0.339,2.439,1.265c0.547,0.858,0.547,2.303,0.547,3.341v6.753c-0.024,0.19-0.194,0.337-0.4,0.337h-2.097
			c-0.193-0.012-0.35-0.154-0.372-0.337v-5.826c0-1.174,0.137-2.891-1.308-2.891c-0.508,0-0.976,0.339-1.21,0.858
			c-0.293,0.654-0.332,1.31-0.332,2.032v5.777C69.188,23.497,69.007,23.668,68.784,23.668z"/>
		<ellipse fill-rule="evenodd" clip-rule="evenodd" cx="77.25" cy="22.817" rx="1.029" ry="0.978"/>
		<path d="M98.369,23.672c-0.216-0.007-0.39-0.177-0.39-0.387v-10.73c0.015-0.189,0.175-0.341,0.375-0.354h0.767
			c0.212,0,0.385,0.154,0.402,0.354v1.564c0.545-1.239,1.562-2.211,2.848-2.211l0.08,0.001l0.077-0.001
			c1.363,0,2.361,1.006,2.731,2.467c0.577-1.443,1.666-2.467,3.102-2.467l0.075,0.001l0.083-0.001c1.015,0,1.99,0.654,2.498,1.648
			c0.487,0.948,0.468,2.212,0.468,3.273v6.456c0,0.205-0.166,0.372-0.376,0.386h-0.918c-0.198-0.007-0.359-0.148-0.386-0.333V16.83
			c0-0.768,0.039-1.58-0.274-2.28c-0.318-0.717-0.927-1.161-1.579-1.195c-0.73,0.037-1.399,0.566-1.833,1.285
			c-0.565,0.926-0.546,1.762-0.546,2.846v5.856c-0.026,0.179-0.181,0.317-0.372,0.33h-0.914c-0.217-0.007-0.391-0.177-0.391-0.387
			l-0.004-6.884c0-0.633-0.039-1.378-0.331-1.942c-0.338-0.649-0.943-1.07-1.578-1.104c-0.658,0.038-1.324,0.541-1.719,1.128
			c-0.508,0.744-0.605,1.67-0.605,2.618v6.186c0,0.205-0.166,0.372-0.375,0.386H98.369z"/>
		<path d="M92.069,23.897c-2.966,0-4.293-3.026-4.293-6.052c0-3.183,1.562-5.938,4.547-5.938l0.077,0.001l0.081-0.001
			c2.908,0,4.353,2.935,4.353,5.961c0,3.206-1.601,6.028-4.606,6.028l-0.077-0.001L92.069,23.897z M92.288,22.428
			c0.977-0.031,1.746-0.636,2.202-1.646c0.409-0.902,0.487-1.941,0.487-2.936c0-1.083-0.117-2.212-0.625-3.139
			c-0.453-0.81-1.237-1.322-2.067-1.353c-0.924,0.034-1.747,0.658-2.165,1.624c-0.371,0.836-0.487,1.942-0.487,2.867
			c0,1.039,0.137,2.236,0.565,3.139C90.615,21.84,91.42,22.397,92.288,22.428z"/>
		<path d="M82.801,22.383c1.331-0.041,2.03-1.108,2.32-2.492c0.057-0.172,0.188-0.305,0.383-0.305l0.882-0.004
			c0.207,0.011,0.398,0.17,0.382,0.363c-0.406,2.354-1.827,3.952-3.852,3.952l-0.081-0.001l-0.076,0.001
			c-2.947,0-4.216-2.958-4.216-5.961c0-2.98,1.288-6.028,4.234-6.028l0.078,0.001l0.08-0.001c2.045,0,3.504,1.575,3.821,3.93
			c0,0.177-0.164,0.33-0.356,0.352l-0.923-0.01c-0.192-0.028-0.318-0.194-0.348-0.379c-0.222-1.314-0.977-2.36-2.234-2.401
			c-2.004,0.064-2.574,2.53-2.574,4.424C80.321,19.651,80.797,22.317,82.801,22.383z"/>
		<path fill-rule="evenodd" clip-rule="evenodd" d="M40.929,18.544c0,0.815,0.021,1.494-0.391,2.219
			c-0.333,0.588-0.86,0.949-1.447,0.949c-0.802,0-1.271-0.61-1.271-1.516c0-1.78,1.598-2.104,3.109-2.104V18.544z M43.036,23.642
			c-0.139,0.125-0.337,0.133-0.493,0.049c-0.694-0.577-0.818-0.844-1.198-1.394c-1.148,1.169-1.961,1.521-3.447,1.521
			c-1.76,0-3.129-1.087-3.129-3.259c0-1.697,0.919-2.852,2.229-3.417c1.134-0.498,2.719-0.589,3.931-0.724v-0.271
			c0-0.499,0.039-1.087-0.254-1.517c-0.255-0.385-0.743-0.543-1.174-0.543c-0.797,0-1.506,0.408-1.681,1.255
			c-0.035,0.188-0.173,0.375-0.362,0.385l-2.026-0.22c-0.171-0.038-0.361-0.176-0.312-0.438c0.466-2.457,2.687-3.2,4.675-3.2
			c1.018,0,2.348,0.271,3.149,1.041c1.018,0.95,0.919,2.218,0.919,3.598v3.257c0,0.98,0.407,1.41,0.789,1.938
			c0.134,0.19,0.164,0.417-0.007,0.556c-0.427,0.358-1.186,1.018-1.603,1.389L43.036,23.642z"/>
		<path fill-rule="evenodd" clip-rule="evenodd" d="M13.522,18.544c0,0.815,0.021,1.494-0.391,2.219
			c-0.332,0.588-0.86,0.949-1.447,0.949c-0.802,0-1.271-0.61-1.271-1.516c0-1.78,1.597-2.104,3.108-2.104V18.544z M15.631,23.642
			c-0.139,0.125-0.338,0.133-0.494,0.049c-0.694-0.577-0.818-0.844-1.198-1.394c-1.147,1.169-1.96,1.521-3.446,1.521
			c-1.761,0-3.129-1.087-3.129-3.259c0-1.697,0.918-2.852,2.229-3.417c1.135-0.498,2.719-0.589,3.931-0.724v-0.271
			c0-0.499,0.039-1.087-0.254-1.517c-0.254-0.385-0.743-0.543-1.174-0.543c-0.797,0-1.506,0.408-1.68,1.255
			c-0.036,0.188-0.174,0.375-0.363,0.385l-2.026-0.22c-0.171-0.038-0.361-0.176-0.312-0.438c0.465-2.457,2.686-3.2,4.675-3.2
			c1.017,0,2.347,0.271,3.149,1.041c1.017,0.95,0.919,2.218,0.919,3.598v3.257c0,0.98,0.406,1.41,0.788,1.938
			c0.134,0.19,0.164,0.417-0.006,0.556c-0.428,0.358-1.187,1.018-1.604,1.389L15.631,23.642z"/>
	</g>
</g>
</svg>
