<?xml version="1.0" encoding="utf-8"?>
<!-- Generator: Adobe Illustrator 16.0.4, SVG Export Plug-In . SVG Version: 6.00 Build 0)  -->
<!DOCTYPE svg PUBLIC "-//W3C//DTD SVG 1.1//EN" "http://www.w3.org/Graphics/SVG/1.1/DTD/svg11.dtd">
<svg version="1.1" id="Layer_1" xmlns="http://www.w3.org/2000/svg" xmlns:xlink="http://www.w3.org/1999/xlink" x="0px" y="0px"
	 width="51.225px" height="51.622px" viewBox="0 0 51.225 51.622" enable-background="new 0 0 51.225 51.622" xml:space="preserve">
<path fill="#109298" d="M44.215,24.176l-0.363-0.548L33.707,13.482c-0.654-0.659-1.733-0.659-2.392,0
	c-0.653,0.659-0.653,1.732,0,2.391l7.26,7.257H5.455c-0.933,0-1.691,0.758-1.691,1.692c0,0.933,0.758,1.691,1.691,1.691h33.12
	l-7.26,7.261c-0.651,0.647-0.651,1.73,0,2.391c0.661,0.648,1.74,0.648,2.392,0l10.145-10.149l0.367-0.547l0.13-0.64v-0.006
	L44.215,24.176z"/>
</svg>
