<?xml version="1.0" encoding="utf-8"?>
<!-- Generator: Adobe Illustrator 16.0.4, SVG Export Plug-In . SVG Version: 6.00 Build 0)  -->
<!DOCTYPE svg PUBLIC "-//W3C//DTD SVG 1.1//EN" "http://www.w3.org/Graphics/SVG/1.1/DTD/svg11.dtd">
<svg version="1.1" id="Capa_1" xmlns="http://www.w3.org/2000/svg" xmlns:xlink="http://www.w3.org/1999/xlink" x="0px" y="0px"
	 width="64px" height="64px" viewBox="0 0 64 64" enable-background="new 0 0 64 64" xml:space="preserve">
<path fill="#109298" d="M55.158,24.981c-2.975-8.204-10.375-14.18-19.02-15.628C35.995,9.3,35.842,9.26,35.667,9.25
	c-0.108-0.006-0.224-0.005-0.334-0.01c-1.069-0.143-2.151-0.232-3.25-0.232c-10.327,0-19.644,6.511-23.074,15.973
	C4.631,25.031,1.084,28.609,1.084,33c0,4.391,3.547,7.969,7.926,8.02c3.431,9.461,12.747,15.973,23.074,15.973
	c4.02,0,7.881-0.997,11.307-2.762c-0.785-0.687-1.547-1.441-2.224-2.252c-2.793,1.287-5.879,2.014-9.083,2.014
	c-9.43,0-17.894-6.164-20.585-14.989l-0.377-1.237l-1.278,0.191C9.557,38,9.321,38.02,9.104,38.02c-2.768,0-5.02-2.252-5.02-5.02
	c0-2.768,2.252-5.02,5.02-5.02c0.217,0,0.453,0.02,0.742,0.062l1.277,0.188l0.376-1.235c1.824-5.983,6.306-10.735,11.939-13.18
	c-1.258,2.786,0.45,6.219,3.297,7.559c3.547,1.669,9.287,1.887,11.707-1.744c1.092-1.636,0.123-3.705-1.197-4.825
	c-1.848-1.567-4.531-1.79-6.725-0.919c-1.776,0.705-1.003,3.607,0.798,2.893c1.304-0.517,2.492-0.556,3.744,0.131
	c1.717,0.944,0.135,2.022-1.065,2.367c-2.237,0.643-5.538,0.118-7.287-1.452c-2.208-1.982,0.636-4.231,2.396-4.847
	c1.908-0.668,4.005-0.816,6.024-0.743c8.161,1.161,15.146,6.898,17.542,14.76l0.376,1.235l1.277-0.188
	c0.288-0.042,0.524-0.062,0.741-0.062c2.769,0,5.021,2.252,5.021,5.02c0,2.768-2.252,5.02-5.021,5.02
	c-0.217,0-0.453-0.02-0.739-0.062l-1.278-0.19l-0.377,1.236c-0.134,0.439-0.293,0.868-0.455,1.294
	c0.455-0.106,0.928-0.168,1.414-0.168c1.068,0,2.072,0.269,2.952,0.74c3.698-0.711,6.504-3.965,6.504-7.869
	C63.084,28.609,59.537,25.031,55.158,24.981z"/>
<path fill="#109298" d="M25.75,31.958c-2.579,0-2.579,4,0,4S28.33,31.958,25.75,31.958z"/>
<path fill="#109298" d="M38.417,31.708c-2.579,0-2.579,4,0,4S40.997,31.708,38.417,31.708z"/>
<path fill="#109298" d="M32.084,46c3.252,0,5.898-2.646,5.898-5.898c0-0.83-0.672-1.5-1.5-1.5s-1.5,0.67-1.5,1.5l0,0
	c0,1.599-1.301,2.898-2.898,2.898c-1.598,0-2.899-1.3-2.899-2.898l0,0c0-0.83-0.672-1.5-1.5-1.5s-1.5,0.67-1.5,1.5
	C26.185,43.354,28.831,46,32.084,46z"/>
<path fill="#109298" d="M49.316,56.463l0.686-0.352c0.591-0.303,5.807-3.074,7.021-6.963l0.074-0.254
	c0.08-0.299,0.137-0.597,0.164-0.879c0.018-0.175,0.026-0.35,0.026-0.525c0-2.045-1.168-3.803-2.86-4.698
	c-0.742-0.394-1.576-0.637-2.474-0.637c-0.188,0-0.376,0.017-0.563,0.036c-0.733,0.078-1.438,0.3-2.074,0.664
	c-0.797-0.457-1.703-0.699-2.639-0.699c-2.941,0-5.334,2.393-5.334,5.334c0,0.176,0.01,0.352,0.025,0.512
	c0.027,0.291,0.082,0.583,0.162,0.878l0.072,0.251c0.231,0.739,0.605,1.436,1.063,2.085c0.597,0.845,1.337,1.606,2.093,2.263
	c1.73,1.504,3.537,2.463,3.871,2.633L49.316,56.463z M45.195,49.576c-0.326-0.444-0.59-0.903-0.734-1.366l-1.432,0.449l1.402-0.556
	c-0.035-0.125-0.062-0.252-0.076-0.396c-0.008-0.072-0.01-0.145-0.01-0.218c0-1.287,1.047-2.334,2.334-2.334
	c0.598,0,1.168,0.229,1.604,0.644l0.447,0.426l0.586,0.556l1.033-0.98c0.438-0.416,1.008-0.644,1.604-0.644
	c0.378,0,0.729,0.099,1.045,0.258c0.761,0.385,1.289,1.166,1.289,2.076c0,0.072-0.003,0.146-0.013,0.225
	c-0.012,0.133-0.039,0.264-0.082,0.421l-0.029,0.103c-0.614,1.968-3.279,3.89-4.848,4.822c-0.566-0.336-1.274-0.806-1.979-1.356
	C46.546,51.082,45.766,50.354,45.195,49.576z"/>
</svg>
