<?xml version="1.0" encoding="utf-8"?>
<!-- Generator: Adobe Illustrator 16.0.4, SVG Export Plug-In . SVG Version: 6.00 Build 0)  -->
<!DOCTYPE svg PUBLIC "-//W3C//DTD SVG 1.1//EN" "http://www.w3.org/Graphics/SVG/1.1/DTD/svg11.dtd">
<svg version="1.1" id="Layer_1" xmlns="http://www.w3.org/2000/svg" xmlns:xlink="http://www.w3.org/1999/xlink" x="0px" y="0px"
	 width="51.224px" height="51.622px" viewBox="0 0 51.224 51.622" enable-background="new 0 0 51.224 51.622" xml:space="preserve">
<g>
	<path fill-rule="evenodd" clip-rule="evenodd" fill="#109298" d="M51.324,2.741c0-0.079,0-0.159,0-0.239c-0.013,0-0.025,0-0.04,0
		c0-0.052,0-0.105,0-0.158c-0.013,0-0.025,0-0.039,0c0-0.026,0-0.054,0-0.08c-0.013,0-0.025,0-0.038,0c0-0.053,0-0.106,0-0.159
		c-0.015,0-0.027,0-0.04,0c-0.015-0.065-0.027-0.133-0.04-0.198c-0.013,0-0.027,0-0.042,0c-0.013-0.053-0.025-0.106-0.038-0.16
		c-0.014,0-0.026,0-0.041,0c-0.013-0.053-0.025-0.105-0.038-0.158c-0.015,0-0.027,0-0.04,0c-0.015-0.04-0.027-0.079-0.04-0.12
		c-0.027-0.013-0.053-0.026-0.079-0.04c0-0.026,0-0.053,0-0.079c-0.053-0.04-0.105-0.08-0.16-0.12c0-0.026,0-0.053,0-0.079
		c-0.104-0.093-0.212-0.186-0.316-0.278c-0.04-0.053-0.08-0.106-0.12-0.16c-0.026,0-0.052,0-0.079,0
		c-0.025-0.039-0.053-0.079-0.08-0.119c-0.027,0-0.053,0-0.079,0c-0.013-0.026-0.025-0.053-0.04-0.08c-0.025,0-0.053,0-0.078,0
		c-0.015-0.026-0.027-0.053-0.04-0.079c-0.04,0-0.079,0-0.119,0c-0.013-0.027-0.025-0.054-0.04-0.08c-0.027,0-0.053,0-0.078,0
		c0-0.013,0-0.026,0-0.04c-0.041,0-0.079,0-0.121,0c0-0.013,0-0.027,0-0.04c-0.025,0-0.053,0-0.08,0c0-0.013,0-0.026,0-0.04
		c-0.037,0-0.079,0-0.117,0c-0.015-0.027-0.027-0.053-0.04-0.08c-0.067,0-0.132,0-0.199,0c0-0.013,0-0.026,0-0.04
		c-0.04,0-0.079,0-0.119,0c0-0.013,0-0.026,0-0.04c-0.08,0-0.159,0-0.237,0c0-0.013,0-0.026,0-0.039c-0.04,0-0.08,0-0.12,0
		c0-0.013,0-0.027,0-0.04c-0.939,0-1.88,0-2.819,0c-2.092,0-4.186,0-6.277,0c-8.805,0-17.61,0-26.415,0c-2.489,0-4.979,0-7.467,0
		C4.664,0,3.764,0,2.864,0c0,0.013,0,0.027,0,0.04c-0.039,0-0.08,0-0.119,0c0,0.013,0,0.026,0,0.039c-0.081,0-0.159,0-0.239,0
		c0,0.013,0,0.026,0,0.04c-0.039,0-0.08,0-0.119,0c0,0.014,0,0.027,0,0.04c-0.066,0-0.132,0-0.199,0
		c-0.014,0.026-0.027,0.053-0.04,0.08c-0.039,0-0.08,0-0.119,0c0,0.014,0,0.026,0,0.04c-0.026,0-0.053,0-0.08,0
		c0,0.013,0,0.027,0,0.04c-0.039,0-0.08,0-0.119,0c0,0.013,0,0.026,0,0.04c-0.026,0-0.053,0-0.08,0
		C1.739,0.383,1.726,0.41,1.713,0.438c-0.041,0-0.082,0-0.121,0c0,0.013,0,0.026,0,0.039c-0.039,0.013-0.08,0.026-0.119,0.04
		c-0.013,0.027-0.026,0.053-0.04,0.08c-0.026,0-0.053,0-0.079,0c-0.027,0.04-0.053,0.08-0.08,0.119c-0.027,0-0.053,0-0.08,0
		c-0.041,0.054-0.08,0.106-0.12,0.16C0.97,0.966,0.864,1.059,0.758,1.152c0,0.026,0,0.053,0,0.079
		C0.72,1.258,0.68,1.284,0.639,1.311c0,0.026,0,0.053,0,0.08C0.599,1.417,0.56,1.443,0.521,1.469
		c-0.014,0.054-0.026,0.106-0.04,0.16c-0.026,0.013-0.054,0.026-0.08,0.039c0,0.026,0,0.053,0,0.079c-0.013,0-0.026,0-0.039,0
		c0,0.04,0,0.08,0,0.12c-0.014,0-0.027,0-0.04,0c-0.026,0.08-0.052,0.16-0.08,0.238c-0.013,0-0.026,0-0.039,0
		c0,0.053,0,0.106,0,0.159c-0.25,0.693-0.199,1.714-0.199,2.662c0,1.787,0,3.575,0,5.362c0,9.505,0,19.014,0,28.521
		c0,2.688,0,5.375,0,8.063c0.013,0.596,0.026,1.191,0.039,1.787c0.014,0,0.026,0,0.04,0c0,0.053,0,0.106,0,0.159
		c0.013,0,0.027,0,0.041,0c0,0.053,0,0.105,0,0.159c0.013,0,0.026,0,0.04,0c0,0.053,0,0.105,0,0.158c0.014,0,0.026,0,0.04,0
		c0,0.04,0,0.079,0,0.119c0.013,0,0.026,0,0.039,0c0,0.04,0,0.08,0,0.12c0.014,0,0.027,0,0.04,0c0.026,0.078,0.052,0.158,0.08,0.238
		c0.013,0,0.026,0,0.039,0c0.013,0.053,0.026,0.105,0.04,0.158c0.027,0.013,0.054,0.027,0.08,0.04c0,0.026,0,0.052,0,0.079
		c0.026,0.013,0.052,0.026,0.079,0.04c0.083,0.123,0.111,0.239,0.239,0.317c0,0.026,0,0.053,0,0.079
		c0.112,0.031,0.114,0.071,0.199,0.12c0,0.026,0,0.052,0,0.079c0.103,0.028,0.129,0.062,0.199,0.12c0,0.013,0,0.025,0,0.038
		c0.04,0.014,0.079,0.026,0.119,0.04c0.013,0.026,0.026,0.054,0.039,0.079c0.026,0,0.054,0,0.08,0
		c0.013,0.027,0.026,0.054,0.039,0.08c0.026,0,0.054,0,0.08,0c0.014,0.026,0.026,0.053,0.039,0.079c0.041,0,0.082,0,0.121,0
		c0.014,0.027,0.026,0.054,0.04,0.08c0.04,0,0.079,0,0.12,0c0.013,0.026,0.026,0.053,0.039,0.079c0.053,0,0.106,0,0.159,0
		c0,0.013,0,0.025,0,0.04c0.039,0,0.079,0,0.119,0c0,0.013,0,0.025,0,0.04c0.027,0,0.054,0,0.08,0c0,0.013,0,0.025,0,0.04
		c0.106,0.013,0.212,0.025,0.317,0.039c0,0.014,0,0.026,0,0.039c0.424,0.013,0.848,0.026,1.272,0.039c0.86,0,1.721,0,2.582,0
		c2.846,0,5.693,0,8.54,0c7.812,0,15.624,0,23.436,0c2.808,0,5.615,0,8.422,0c0.703,0,1.53,0.055,2.065-0.117
		c0.066,0,0.134,0,0.199,0c0.012-0.027,0.026-0.055,0.039-0.08c0.093-0.015,0.185-0.027,0.277-0.04c0-0.014,0-0.026,0-0.039
		c0.027,0,0.055,0,0.08,0c0-0.014,0-0.027,0-0.04c0.026,0,0.054,0,0.079,0c0.013-0.026,0.027-0.053,0.04-0.08c0.04,0,0.08,0,0.119,0
		c0.013-0.026,0.025-0.053,0.04-0.079c0.182-0.118,0.366-0.171,0.477-0.357c0.027,0,0.053,0,0.08,0
		c0.028-0.112,0.07-0.114,0.117-0.199c0.027,0,0.055,0,0.08,0c0.03-0.104,0.063-0.128,0.119-0.198c0.015,0,0.027,0,0.04,0
		c0-0.026,0-0.054,0-0.079c0.027-0.014,0.055-0.026,0.08-0.04c0-0.026,0-0.053,0-0.079c0.026-0.014,0.052-0.027,0.079-0.04
		c0-0.027,0-0.053,0-0.079c0.025-0.013,0.053-0.027,0.08-0.04c0.013-0.053,0.025-0.105,0.038-0.158c0.015,0,0.027,0,0.041,0
		c0.025-0.08,0.053-0.16,0.08-0.238c0.013,0,0.025,0,0.04,0c0.065-0.239,0.132-0.477,0.197-0.716c0-3.972,0-7.945,0-11.916
		c0-7.613,0-15.228,0-22.84c0-2.807,0-5.615,0-8.421c0-0.914,0-1.828,0-2.741C51.352,2.741,51.339,2.741,51.324,2.741z
		 M19.786,13.028c0.013,0,0.026,0,0.04,0c0-0.119,0-0.238,0-0.357c0.013,0,0.026,0,0.039,0c0-0.066,0-0.132,0-0.199
		c0.014,0,0.027,0,0.041,0c0-0.066,0-0.132,0-0.198c0.013,0,0.026,0,0.039,0c0-0.067,0-0.133,0-0.199c0.014,0,0.026,0,0.04,0
		c0-0.052,0-0.106,0-0.159c0.014,0,0.026,0,0.04,0c0-0.04,0-0.079,0-0.119c0.013,0,0.027,0,0.041,0c0-0.026,0-0.053,0-0.08
		c0.013,0,0.025,0,0.039,0c0.013-0.092,0.026-0.185,0.041-0.278c0.013,0,0.026,0,0.039,0c0.013-0.053,0.026-0.105,0.039-0.159
		c0.014,0,0.027,0,0.041,0c0-0.04,0-0.08,0-0.119c0.013,0,0.026,0,0.039,0c0.026-0.079,0.053-0.159,0.08-0.239
		c0.013,0,0.026,0,0.039,0c0-0.026,0-0.053,0-0.079c0.014,0,0.027,0,0.041,0c0.013-0.053,0.026-0.106,0.039-0.159
		c0.026-0.013,0.053-0.026,0.08-0.04c0-0.026,0-0.052,0-0.079c0.013,0,0.026,0,0.041,0c0-0.027,0-0.053,0-0.08l0.079-0.08
		c0-0.026,0-0.053,0-0.079c0.04-0.026,0.079-0.053,0.12-0.079c0-0.027,0-0.053,0-0.08c0.026-0.014,0.052-0.027,0.079-0.04
		c0-0.027,0-0.053,0-0.079c0.026-0.013,0.053-0.026,0.08-0.04c0-0.013,0-0.026,0-0.04c0.026-0.013,0.053-0.026,0.079-0.04
		c0-0.027,0-0.054,0-0.08c0.013,0,0.027,0,0.04,0c0.047-0.059,0.055-0.071,0.08-0.159c0.027,0,0.053,0,0.08,0
		c0.044-0.165,0.175-0.214,0.278-0.317c0.065-0.08,0.132-0.159,0.199-0.239c0.026,0,0.053,0,0.079,0
		c0.014-0.026,0.026-0.053,0.04-0.08c0.013,0,0.027,0,0.04,0c0.04-0.053,0.08-0.105,0.119-0.158c0.026,0,0.052,0,0.08,0
		c0.039-0.053,0.08-0.106,0.119-0.16c0.054-0.013,0.107-0.026,0.159-0.039c0.014-0.026,0.026-0.053,0.04-0.08
		c0.027,0,0.053,0,0.08,0c0.013-0.027,0.025-0.053,0.04-0.08c0.026,0,0.052,0,0.079,0c0.014-0.027,0.026-0.053,0.04-0.079
		c0.026,0,0.053,0,0.08,0c0.014-0.026,0.026-0.053,0.04-0.08c0.04,0,0.08,0,0.12,0c0.013-0.026,0.026-0.053,0.039-0.08
		c0.119-0.04,0.238-0.08,0.357-0.119c0.014-0.026,0.026-0.053,0.041-0.079c0.039,0,0.079,0,0.119,0c0-0.014,0-0.027,0-0.04
		c0.026,0,0.052,0,0.079,0c0-0.013,0-0.026,0-0.04c0.066-0.013,0.132-0.026,0.199-0.04c0-0.014,0-0.026,0-0.04
		c0.106-0.013,0.212-0.026,0.317-0.04c0.428-0.151,0.832-0.239,1.432-0.239c0.344,0,0.688,0,1.032,0c0,0.013,0,0.026,0,0.04
		c0.065,0,0.132,0,0.199,0c0,0.013,0,0.026,0,0.04c0.092,0,0.183,0,0.277,0c0,0.013,0,0.026,0,0.04c0.027,0,0.052,0,0.08,0
		c0,0.014,0,0.027,0,0.04c0.065,0,0.133,0,0.199,0c0,0.014,0,0.026,0,0.04c0.093,0.014,0.185,0.027,0.277,0.04
		c0,0.013,0,0.026,0,0.04c0.053,0,0.106,0,0.159,0c0.013,0.026,0.025,0.053,0.04,0.079c0.118,0.027,0.239,0.053,0.356,0.08
		c0.013,0.026,0.027,0.053,0.04,0.079c0.04,0,0.08,0,0.12,0c0,0.013,0,0.026,0,0.04c0.052,0.013,0.104,0.027,0.157,0.04
		c0,0.013,0,0.026,0,0.04c0.027,0,0.055,0,0.08,0c0.013,0.026,0.026,0.053,0.041,0.08c0.038,0,0.078,0,0.118,0
		c0.013,0.026,0.027,0.053,0.04,0.08c0.026,0,0.052,0,0.079,0c0.013,0.026,0.027,0.052,0.04,0.079c0.025,0,0.053,0,0.08,0
		c0.013,0.026,0.025,0.053,0.038,0.08c0.039,0.013,0.081,0.026,0.121,0.04c0,0.013,0,0.026,0,0.04
		c0.053,0.013,0.104,0.026,0.157,0.039c0.013,0.027,0.027,0.053,0.04,0.08c0.013,0,0.027,0,0.04,0
		c0.013,0.027,0.025,0.053,0.04,0.08c0.026,0,0.052,0,0.079,0c0,0.013,0,0.026,0,0.04c0.069,0.057,0.096,0.091,0.199,0.119
		c0,0.027,0,0.053,0,0.08c0.165,0.044,0.214,0.175,0.317,0.278c0.104,0.093,0.212,0.185,0.318,0.278c0,0.027,0,0.053,0,0.08
		c0.038,0.026,0.078,0.053,0.118,0.08c0,0.026,0,0.053,0,0.08c0.052,0.04,0.106,0.079,0.157,0.119c0,0.026,0,0.052,0,0.079
		c0.042,0.026,0.081,0.053,0.121,0.08c0,0.026,0,0.053,0,0.08c0.025,0.013,0.053,0.026,0.08,0.04
		c0.025,0.079,0.053,0.159,0.08,0.239c0.024,0.013,0.052,0.026,0.077,0.039c0.027,0.08,0.053,0.16,0.08,0.239
		c0.013,0,0.027,0,0.04,0c0,0.026,0,0.053,0,0.079c0.013,0,0.025,0,0.039,0c0,0.027,0,0.054,0,0.08c0.013,0,0.025,0,0.04,0
		c0,0.026,0,0.053,0,0.08c0.013,0,0.025,0,0.04,0c0.025,0.079,0.053,0.159,0.08,0.238c0.013,0,0.025,0,0.039,0
		c0.013,0.079,0.025,0.159,0.04,0.238c0.013,0,0.025,0,0.038,0c0,0.026,0,0.053,0,0.08c0.015,0,0.027,0,0.042,0
		c0,0.052,0,0.105,0,0.159c0.013,0,0.025,0,0.038,0c0,0.04,0,0.079,0,0.119c0.015,0,0.027,0,0.04,0c0,0.052,0,0.106,0,0.159
		c0.014,0,0.026,0,0.039,0c0,0.053,0,0.106,0,0.159c0.013,0,0.027,0,0.04,0c0,0.054,0,0.106,0,0.159c0.015,0,0.027,0,0.04,0
		c0,0.093,0,0.186,0,0.278c0.013,0,0.025,0,0.04,0c0,0.105,0,0.212,0,0.318c0.104,0.37,0.056,1.18-0.04,1.509c0,0.08,0,0.16,0,0.239
		c-0.013,0-0.025,0-0.04,0c0,0.053,0,0.106,0,0.159c-0.013,0-0.027,0-0.04,0c0,0.053,0,0.106,0,0.159c-0.013,0-0.025,0-0.039,0
		c0,0.054,0,0.106,0,0.16c-0.013,0-0.025,0-0.04,0c0,0.039,0,0.079,0,0.119c-0.013,0-0.025,0-0.038,0c0,0.052,0,0.105,0,0.159
		c-0.027,0.013-0.055,0.026-0.08,0.04c-0.027,0.119-0.054,0.238-0.079,0.357c-0.013,0-0.027,0-0.042,0
		c-0.025,0.08-0.053,0.159-0.078,0.238c-0.015,0-0.027,0-0.04,0c0,0.027,0,0.053,0,0.079c-0.014,0-0.026,0-0.039,0
		c0,0.027,0,0.054,0,0.08c-0.013,0-0.027,0-0.04,0c-0.027,0.079-0.053,0.159-0.08,0.238c-0.025,0.013-0.053,0.027-0.077,0.04
		c-0.015,0.052-0.027,0.105-0.042,0.158c-0.025,0.014-0.053,0.027-0.078,0.04c-0.015,0.053-0.027,0.105-0.04,0.159
		c-0.04,0.026-0.079,0.053-0.121,0.08c0,0.026,0,0.053,0,0.079c-0.025,0.013-0.051,0.026-0.078,0.04c0,0.013,0,0.026,0,0.04
		c-0.027,0.013-0.052,0.026-0.079,0.04c0,0.026,0,0.053,0,0.08c-0.013,0-0.025,0-0.04,0c-0.047,0.058-0.057,0.071-0.078,0.159
		c-0.027,0-0.054,0-0.079,0c-0.031,0.107-0.012,0.09-0.122,0.119c-0.051,0.202-0.284,0.325-0.435,0.437
		c-0.066,0.08-0.134,0.16-0.199,0.238c-0.027,0-0.053,0-0.079,0c-0.027,0.04-0.053,0.08-0.08,0.12c-0.027,0-0.053,0-0.08,0
		c-0.013,0.027-0.025,0.052-0.039,0.08c-0.025,0-0.053,0-0.078,0c-0.015,0.025-0.027,0.053-0.04,0.08c-0.027,0-0.055,0-0.081,0
		c-0.013,0.025-0.025,0.053-0.038,0.079c-0.099,0.064-0.178,0.106-0.319,0.119c0,0.027,0,0.053,0,0.08
		c-0.091,0.013-0.102,0.005-0.159,0.04c0,0.014,0,0.027,0,0.04c-0.04,0-0.08,0-0.118,0c-0.014,0.027-0.026,0.053-0.039,0.08
		c-0.04,0-0.08,0-0.12,0c0,0.014,0,0.026,0,0.04c-0.027,0-0.053,0-0.079,0c0,0.013,0,0.026,0,0.04c-0.04,0-0.078,0-0.12,0
		c-0.013,0.025-0.025,0.053-0.04,0.08c-0.092,0.013-0.185,0.025-0.276,0.04c0,0.013,0,0.025,0,0.04c-0.027,0-0.053,0-0.08,0
		c0,0.013,0,0.025,0,0.039c-0.067,0-0.132,0-0.199,0c-0.013,0.026-0.027,0.052-0.04,0.079c-0.079,0-0.157,0-0.237,0
		c0,0.014,0,0.027,0,0.04c-0.039,0-0.08,0-0.119,0c0,0.014,0,0.027,0,0.04c-0.092,0-0.185,0-0.279,0c0,0.014,0,0.027,0,0.04
		c-0.038,0-0.078,0-0.118,0c0,0.014,0,0.027,0,0.04c-0.159,0-0.318,0-0.476,0c-0.148,0.013-0.435,0.096-0.636,0.04
		c0-0.013,0-0.026,0-0.04c-0.187,0-0.371,0-0.557,0c0-0.013,0-0.026,0-0.04c-0.041,0-0.081,0-0.119,0c0-0.013,0-0.026,0-0.04
		c-0.094,0-0.186,0-0.278,0c0-0.013,0-0.026,0-0.04c-0.039,0-0.08,0-0.119,0c0-0.012,0-0.026,0-0.04c-0.081,0-0.159,0-0.239,0
		c-0.014-0.026-0.026-0.053-0.04-0.079c-0.066,0-0.132,0-0.197,0c0-0.014,0-0.026,0-0.039c-0.027,0-0.054,0-0.08,0
		c0-0.015,0-0.027,0-0.04c-0.054,0-0.106,0-0.159,0c0-0.014,0-0.027,0-0.04c-0.041,0-0.08,0-0.12,0
		c-0.014-0.027-0.026-0.055-0.04-0.08c-0.039,0-0.079,0-0.119,0c0-0.013,0-0.027,0-0.04c-0.026,0-0.054,0-0.08,0
		c0-0.014,0-0.026,0-0.04c-0.041,0-0.08,0-0.119,0c-0.014-0.026-0.026-0.052-0.04-0.08c-0.039,0-0.08,0-0.119,0
		c-0.013-0.026-0.026-0.053-0.04-0.08c-0.04-0.013-0.079-0.026-0.118-0.04c0-0.013,0-0.026,0-0.04
		c-0.066-0.013-0.132-0.025-0.199-0.039c0-0.014,0-0.026,0-0.04c-0.04-0.014-0.08-0.026-0.119-0.04
		c-0.015-0.026-0.027-0.054-0.04-0.079c-0.026,0-0.053,0-0.08,0c0-0.014,0-0.027,0-0.04c-0.04-0.015-0.079-0.027-0.119-0.04
		c-0.014-0.027-0.026-0.052-0.04-0.08c-0.027,0-0.053,0-0.08,0c-0.027-0.04-0.053-0.08-0.08-0.12c-0.027,0-0.054,0-0.08,0
		c0-0.013,0-0.026,0-0.04c-0.091-0.075-0.147-0.163-0.277-0.198c0-0.026,0-0.053,0-0.079c-0.175-0.047-0.22-0.196-0.357-0.279
		c0-0.025,0-0.053,0-0.079c-0.026,0-0.054,0-0.08,0c-0.014-0.041-0.026-0.08-0.04-0.119c-0.066-0.054-0.133-0.106-0.199-0.159
		c0-0.027,0-0.053,0-0.08c-0.053-0.04-0.106-0.08-0.159-0.119c-0.013-0.053-0.026-0.106-0.04-0.159
		c-0.039-0.026-0.08-0.053-0.118-0.08c0-0.026,0-0.052,0-0.079c-0.026-0.013-0.053-0.026-0.08-0.04
		c-0.026-0.08-0.053-0.158-0.08-0.238c-0.026-0.014-0.053-0.027-0.08-0.04c-0.013-0.053-0.026-0.106-0.039-0.159
		c-0.014,0-0.026,0-0.041,0c-0.026-0.08-0.053-0.159-0.079-0.238c-0.013,0-0.026,0-0.04,0c0-0.04,0-0.08,0-0.12
		c-0.013,0-0.026,0-0.039,0c-0.026-0.079-0.053-0.159-0.08-0.239c-0.013,0-0.026,0-0.039,0c0-0.052,0-0.105,0-0.158
		c-0.015,0-0.027,0-0.041,0c0-0.026,0-0.053,0-0.08c-0.014,0-0.026,0-0.039,0c-0.014-0.093-0.028-0.186-0.041-0.278
		c-0.013,0-0.026,0-0.04,0c0-0.04,0-0.08,0-0.12c-0.014,0-0.026,0-0.04,0c0-0.066,0-0.132,0-0.198c-0.013,0-0.026,0-0.039,0
		c0-0.066,0-0.133,0-0.198c-0.013,0-0.027,0-0.041,0c0-0.066,0-0.133,0-0.199c-0.013,0-0.026,0-0.039,0c0-0.106,0-0.211,0-0.317
		C19.786,14.001,19.732,13.22,19.786,13.028z M39.329,33.485c-0.013,0.146-0.027,0.292-0.04,0.437c-0.015,0-0.027,0-0.04,0
		c0,0.054,0,0.106,0,0.159c-0.013,0-0.026,0-0.039,0c0,0.053,0,0.106,0,0.16c-0.013,0-0.027,0-0.04,0c0,0.039,0,0.078,0,0.119
		c-0.013,0-0.025,0-0.04,0c-0.013,0.092-0.025,0.185-0.04,0.277c-0.013,0-0.025,0-0.04,0c-0.014,0.065-0.025,0.132-0.039,0.198
		c-0.013,0-0.025,0-0.04,0c0,0.026,0,0.053,0,0.08c-0.013,0-0.027,0-0.04,0c0,0.039,0,0.079,0,0.118c-0.013,0-0.025,0-0.04,0
		c-0.013,0.054-0.025,0.106-0.04,0.159c-0.013,0-0.025,0-0.038,0c0,0.027,0,0.053,0,0.08c-0.014,0-0.026,0-0.039,0
		c-0.015,0.065-0.027,0.132-0.04,0.199c-0.027,0.013-0.053,0.025-0.08,0.038c0,0.026,0,0.054,0,0.08c-0.013,0-0.027,0-0.04,0
		c0,0.026,0,0.053,0,0.08l-0.079,0.078c0,0.027,0,0.053,0,0.08c-0.013,0-0.025,0-0.038,0c-0.015,0.04-0.029,0.08-0.042,0.119
		c-0.025,0.013-0.053,0.026-0.079,0.04c-0.013,0.053-0.025,0.105-0.04,0.158c-0.025,0.014-0.053,0.026-0.078,0.04
		c0,0.026,0,0.054,0,0.079c-0.042,0.027-0.079,0.054-0.119,0.08c-0.015,0.052-0.027,0.106-0.04,0.159
		c-0.04,0.026-0.08,0.053-0.119,0.079c0,0.025,0,0.053,0,0.079c-0.053,0.04-0.105,0.08-0.16,0.119c0,0.026,0,0.053,0,0.079
		c-0.053,0.04-0.104,0.08-0.159,0.12c0,0.026,0,0.053,0,0.079c-0.093,0.08-0.185,0.158-0.277,0.239c0,0.025,0,0.053,0,0.078
		c-0.026,0.014-0.052,0.027-0.079,0.039c-0.04,0.054-0.08,0.107-0.12,0.16c-0.128,0.129-0.344,0.235-0.396,0.437
		c-0.027,0-0.053,0-0.079,0c-0.065,0.079-0.133,0.159-0.198,0.238c-0.013,0-0.026,0-0.039,0c0,0.026,0,0.053,0,0.08
		c-0.027,0-0.055,0-0.082,0c-0.025,0.04-0.053,0.079-0.078,0.119c-0.1,0.096-0.246,0.155-0.316,0.277c-0.027,0-0.055,0-0.08,0
		c0,0.026,0,0.053,0,0.08c-0.153,0.042-0.125,0.119-0.278,0.158c0,0.026,0,0.054,0,0.08c-0.205,0.054-0.271,0.227-0.477,0.277
		c0,0.027,0,0.053,0,0.08c-0.04,0.013-0.08,0.026-0.12,0.04c0,0.013,0,0.026,0,0.04c-0.026,0-0.052,0-0.079,0
		c0,0.013,0,0.025,0,0.038c-0.025,0-0.053,0-0.078,0c-0.015,0.026-0.027,0.054-0.04,0.08c-0.027,0-0.054,0-0.081,0
		c-0.013,0.026-0.025,0.054-0.038,0.08c-0.027,0-0.055,0-0.08,0c-0.015,0.026-0.027,0.053-0.04,0.078c-0.026,0-0.052,0-0.079,0
		c-0.013,0.027-0.025,0.054-0.04,0.08c-0.027,0-0.053,0-0.078,0c-0.014,0.027-0.027,0.054-0.041,0.08c-0.025,0-0.053,0-0.078,0
		c0,0.013,0,0.026,0,0.039c-0.042,0-0.082,0-0.119,0c-0.015,0.027-0.027,0.053-0.042,0.08c-0.038,0-0.078,0-0.118,0
		c-0.013,0.025-0.027,0.053-0.039,0.079c-0.027,0-0.053,0-0.08,0c0,0.014,0,0.026,0,0.04c-0.025,0-0.053,0-0.08,0
		c0,0.013,0,0.025,0,0.039c-0.039,0-0.079,0-0.119,0c-0.013,0.026-0.025,0.054-0.04,0.079c-0.092,0.014-0.185,0.027-0.277,0.04
		c0,0.014,0,0.027,0,0.04c-0.025,0-0.052,0-0.079,0c0,0.013,0,0.026,0,0.039c-0.053,0-0.107,0-0.159,0c0,0.014,0,0.027,0,0.04
		c-0.025,0-0.053,0-0.08,0c0,0.014,0,0.027,0,0.04c-0.065,0-0.132,0-0.197,0c0,0.014,0,0.027,0,0.04c-0.04,0-0.08,0-0.12,0
		c0,0.013,0,0.026,0,0.04c-0.092,0-0.185,0-0.276,0c0,0.013,0,0.025,0,0.039c-0.027,0-0.055,0-0.08,0c0,0.013,0,0.025,0,0.04
		c-0.119,0-0.239,0-0.358,0c0,0.013,0,0.026,0,0.04c-0.317,0.013-0.636,0.025-0.953,0.04c0-0.015,0-0.027,0-0.04
		c-0.106,0-0.212,0-0.318,0c0-0.014,0-0.027,0-0.04c-0.093,0-0.185,0-0.277,0c0-0.015,0-0.027,0-0.04c-0.027,0-0.055,0-0.08,0
		c0-0.014,0-0.026,0-0.039c-0.052,0-0.104,0-0.157,0c0-0.014,0-0.027,0-0.04c-0.027,0-0.054,0-0.079,0c0-0.013,0-0.026,0-0.04
		c-0.055,0-0.107,0-0.16,0c-0.014-0.026-0.026-0.053-0.039-0.08c-0.027,0-0.053,0-0.08,0c-0.015-0.026-0.027-0.052-0.04-0.079
		c-0.027,0-0.053,0-0.079,0c0-0.013,0-0.026,0-0.04c-0.025,0-0.053,0-0.078,0c0-0.013,0-0.025,0-0.039
		c-0.04-0.014-0.08-0.026-0.12-0.04c0-0.026,0-0.053,0-0.079c-0.115-0.028-0.132-0.043-0.159-0.159c-0.027,0-0.053,0-0.079,0
		c-0.015-0.039-0.027-0.079-0.04-0.119c-0.04-0.026-0.08-0.053-0.12-0.08c0-0.025,0-0.052,0-0.078l-0.077-0.08
		c0-0.026,0-0.054,0-0.08c-0.027-0.013-0.055-0.025-0.08-0.038c0-0.027,0-0.054,0-0.08c-0.015,0-0.027,0-0.042,0
		c0-0.027,0-0.053,0-0.08c-0.013,0-0.025,0-0.039,0c0-0.039,0-0.079,0-0.119c-0.013,0-0.025,0-0.038,0c0-0.039,0-0.079,0-0.118
		c-0.015,0-0.027,0-0.04,0c0-0.04,0-0.08,0-0.12c-0.015,0-0.027,0-0.04,0c-0.058-0.178,0.002-0.557,0.04-0.675
		c0.04-0.172,0.078-0.344,0.117-0.516c0.015,0,0.027,0,0.042,0c0.013-0.054,0.025-0.107,0.04-0.16c0.013,0,0.025,0,0.04,0
		c0.013-0.052,0.025-0.105,0.038-0.159c0.026-0.013,0.054-0.026,0.079-0.04c0-0.025,0-0.052,0-0.078
		c0.027-0.014,0.053-0.026,0.08-0.039c0-0.027,0-0.055,0-0.081c0.025-0.013,0.053-0.025,0.079-0.038c0-0.027,0-0.054,0-0.08
		c0.065-0.053,0.133-0.106,0.199-0.159c0-0.026,0-0.053,0-0.08c0.027-0.013,0.053-0.026,0.08-0.04
		c0.085-0.091,0.199-0.179,0.237-0.316c0.027,0,0.053,0,0.08,0c0.026-0.1,0.021-0.065,0.077-0.12c0-0.013,0-0.026,0-0.039
		c0.027,0,0.055,0,0.08,0c0.106-0.119,0.214-0.238,0.318-0.357c0.089-0.081,0.173-0.089,0.239-0.199c0.025,0,0.053,0,0.078,0
		c0-0.026,0-0.053,0-0.079c0.027,0,0.055,0,0.079,0c0.025-0.095,0.012-0.074,0.08-0.119c0-0.014,0-0.026,0-0.04
		c-0.212,0.038-0.515,0.103-0.716,0.159c-0.179,0.051-0.558-0.046-0.675-0.08c-0.146,0-0.29,0-0.435,0c0-0.013,0-0.025,0-0.039
		c-0.135-0.014-0.267-0.026-0.398-0.04c0-0.014,0-0.026,0-0.04c-0.065,0-0.133,0-0.199,0c-0.013-0.025-0.025-0.052-0.04-0.078
		c-0.065,0-0.133,0-0.197,0c0-0.014,0-0.027,0-0.041c-0.027,0-0.053,0-0.08,0c0-0.014,0-0.026,0-0.039c-0.04,0-0.08,0-0.119,0
		c0-0.014,0-0.027,0-0.04c-0.025,0-0.053,0-0.078,0c0-0.013,0-0.026,0-0.039c-0.042,0-0.082,0-0.121,0c0-0.014,0-0.027,0-0.04
		c-0.08-0.026-0.158-0.053-0.237-0.08c0-0.013,0-0.025,0-0.039c-0.027,0-0.053,0-0.08,0c0-0.014,0-0.026,0-0.04
		c-0.067-0.013-0.132-0.025-0.199-0.04c-0.132-0.07-0.157-0.174-0.357-0.198c0-0.026,0-0.053,0-0.079
		c-0.177-0.042-0.228-0.157-0.396-0.199c0-0.026,0-0.053,0-0.08c-0.177-0.049-0.143-0.15-0.319-0.197c0-0.027,0-0.053,0-0.079
		c-0.027,0-0.052,0-0.08,0c0-0.027,0-0.054,0-0.08c-0.025,0-0.053,0-0.08,0c0-0.026,0-0.054,0-0.08c-0.025,0-0.053,0-0.078,0
		c-0.038-0.13-0.123-0.187-0.199-0.277c-0.013,0-0.027,0-0.04,0c0-0.026,0-0.054,0-0.079c-0.04-0.027-0.08-0.054-0.12-0.079
		c0-0.026,0-0.053,0-0.08c-0.08-0.066-0.158-0.132-0.237-0.198c-0.013-0.041-0.027-0.081-0.04-0.12
		c-0.04-0.025-0.082-0.053-0.119-0.078c0-0.027,0-0.054,0-0.08c-0.04-0.027-0.08-0.054-0.12-0.079c-0.013-0.04-0.027-0.08-0.04-0.12
		c-0.025-0.013-0.052-0.026-0.079-0.04c0-0.025,0-0.052,0-0.079c-0.026-0.013-0.053-0.026-0.08-0.04c0-0.025,0-0.053,0-0.079
		c-0.039-0.026-0.079-0.053-0.12-0.078c-0.013-0.053-0.026-0.107-0.04-0.16c-0.039-0.026-0.079-0.052-0.119-0.079
		c0-0.026,0-0.053,0-0.08c-0.026-0.013-0.052-0.026-0.08-0.04c-0.026-0.078-0.052-0.158-0.079-0.237c-0.014,0-0.027,0-0.04,0
		c-0.014-0.039-0.026-0.079-0.039-0.119c-0.027-0.014-0.053-0.027-0.08-0.04c0-0.027,0-0.053,0-0.079c-0.014,0-0.026,0-0.04,0
		c0-0.027,0-0.053,0-0.08c-0.026-0.013-0.054-0.025-0.081-0.04c-0.026-0.078-0.052-0.158-0.079-0.237
		c-0.027-0.014-0.053-0.027-0.08-0.04c-0.026-0.079-0.053-0.159-0.079-0.238c-0.026-0.013-0.054-0.025-0.08-0.04
		c-0.026-0.079-0.053-0.158-0.08-0.237c-0.026-0.014-0.052-0.027-0.08-0.04c0-0.027,0-0.054,0-0.08
		c-0.039-0.026-0.08-0.053-0.119-0.079c-0.014-0.053-0.026-0.106-0.041-0.159c-0.079-0.066-0.158-0.133-0.237-0.197
		c0-0.027,0-0.054,0-0.08c-0.026,0-0.054,0-0.08,0c0-0.027,0-0.054,0-0.08c-0.103-0.028-0.127-0.063-0.198-0.119
		c0-0.013,0-0.026,0-0.04c-0.053-0.013-0.106-0.026-0.159-0.04c-0.013-0.026-0.026-0.053-0.039-0.079c-0.04,0-0.08,0-0.12,0
		c0-0.013,0-0.025,0-0.039c-0.026,0-0.052,0-0.079,0c0-0.014,0-0.026,0-0.04c-0.067,0-0.133,0-0.199,0c0-0.014,0-0.026,0-0.039
		c-0.053,0-0.106,0-0.159,0c0-0.015,0-0.027,0-0.04c-0.118-0.03-0.252,0.06-0.318,0.079c-0.093,0-0.185,0-0.277,0
		c0,0.014,0,0.026,0,0.04c-0.026,0-0.053,0-0.08,0c0,0.014,0,0.026,0,0.039c-0.054,0-0.106,0-0.16,0
		c-0.013,0.026-0.026,0.053-0.04,0.079c-0.026,0-0.053,0-0.079,0c0,0.014,0,0.027,0,0.04c-0.026,0-0.054,0-0.08,0
		c0,0.014,0,0.027,0,0.04c-0.04,0.014-0.08,0.027-0.119,0.04c-0.046,0.172-0.126,0.136-0.199,0.239c0,0.024,0,0.052,0,0.077
		c-0.027,0.015-0.053,0.027-0.08,0.04c0,0.027,0,0.055,0,0.08c-0.013,0-0.026,0-0.04,0c0,0.027,0,0.053,0,0.079
		c-0.012,0-0.026,0-0.039,0c0,0.04,0,0.08,0,0.12c-0.014,0-0.026,0-0.041,0c0,0.052,0,0.105,0,0.159
		c-0.239,0.712,0.007,1.445,0.239,2.024c0.026,0.12,0.052,0.239,0.079,0.358c0.014,0,0.026,0,0.041,0c0,0.026,0,0.053,0,0.078
		c0.014,0,0.025,0,0.039,0c0,0.04,0,0.081,0,0.12c0.013,0,0.027,0,0.04,0c0,0.039,0,0.079,0,0.119
		c0.027,0.013,0.053,0.026,0.08,0.04c0,0.04,0,0.08,0,0.119c0.013,0,0.026,0,0.04,0c0,0.026,0,0.053,0,0.08c0.014,0,0.026,0,0.04,0
		c0,0.039,0,0.078,0,0.118c0.012,0,0.026,0,0.039,0c0.014,0.054,0.027,0.106,0.04,0.159c0.014,0,0.026,0,0.04,0
		c0,0.026,0,0.053,0,0.079c0.013,0,0.027,0,0.04,0c0,0.04,0,0.08,0,0.12c0.026,0.013,0.053,0.026,0.079,0.04
		c0,0.025,0,0.052,0,0.078l0.081,0.08c0,0.026,0,0.053,0,0.078c0.014,0,0.026,0,0.04,0c0.039,0.12,0.079,0.239,0.119,0.358
		c-0.014,0-0.026,0-0.04,0c-0.019,0.152-0.049,0.111-0.079,0.238c-0.117,0.034-0.158,0.092-0.239,0.159c0,0.013,0,0.026,0,0.04
		c-0.026,0-0.052,0-0.08,0c-0.013,0.026-0.026,0.052-0.039,0.079c-0.026,0-0.054,0-0.08,0c-0.014,0.025-0.026,0.053-0.04,0.08
		c-0.04,0-0.08,0-0.119,0c-0.015,0.026-0.027,0.053-0.041,0.078c-0.027,0-0.052,0-0.079,0c0,0.014,0,0.026,0,0.04
		c-0.04,0-0.08,0-0.12,0c0,0.014,0,0.026,0,0.04c-0.04,0-0.079,0-0.12,0c0,0.014,0,0.026,0,0.039c-0.039,0-0.079,0-0.119,0
		c0,0.014,0,0.027,0,0.041c-0.026,0-0.053,0-0.08,0c0,0.014,0,0.026,0,0.039c-0.092,0.014-0.186,0.026-0.278,0.039
		c0,0.014,0,0.027,0,0.04c-0.065,0-0.131,0-0.198,0c0,0.013,0,0.027,0,0.04c-0.039,0-0.08,0-0.12,0c0,0.013,0,0.027,0,0.04
		c-0.079,0-0.159,0-0.238,0c0,0.013,0,0.026,0,0.04c-0.052,0-0.105,0-0.159,0c0,0.013,0,0.026,0,0.039c-0.133,0-0.265,0-0.397,0
		c0,0.013,0,0.026,0,0.04c-0.213,0-0.424,0-0.635,0c0,0.013,0,0.025,0,0.039c-0.107,0-0.213,0-0.319,0c0,0.014,0,0.026,0,0.04
		c-0.185,0-0.371,0-0.556,0c0,0.014,0,0.026,0,0.04c-0.039,0-0.079,0-0.119,0c0,0.014,0,0.026,0,0.039c-0.066,0-0.132,0-0.199,0
		c-0.025,0.013-0.001,0.053-0.12,0.08c-0.023,0.079,0.005,0.033-0.039,0.079c0.013,0.04,0.026,0.079,0.039,0.119
		c0.015,0,0.027,0,0.041,0c0,0.027,0,0.053,0,0.08c0.013,0,0.025,0,0.039,0c0.054,0.058,0.02,0.054,0.119,0.079
		c0,0.025,0,0.053,0,0.079c0.041,0.014,0.081,0.026,0.121,0.04c0,0.014,0,0.026,0,0.04c0.026,0,0.053,0,0.08,0
		c0,0.014,0,0.026,0,0.039c0.039,0,0.079,0,0.119,0c0.013,0.026,0.026,0.053,0.04,0.079c0.039,0,0.079,0,0.119,0
		c0.014,0.027,0.026,0.054,0.04,0.08c0.027,0,0.053,0,0.08,0c0,0.013,0,0.026,0,0.04c0.027,0,0.054,0,0.08,0
		c0,0.013,0,0.026,0,0.039c0.04,0,0.08,0,0.119,0c0.014,0.027,0.027,0.053,0.04,0.08c0.08,0.013,0.159,0.026,0.238,0.04
		c0,0.013,0,0.025,0,0.04c0.026,0,0.053,0,0.08,0c0,0.013,0,0.025,0,0.038c0.04,0,0.08,0,0.12,0
		c0.014,0.026,0.026,0.054,0.039,0.081c0.12,0.025,0.239,0.053,0.359,0.078c0,0.014,0,0.027,0,0.039c0.026,0,0.052,0,0.079,0
		c0,0.014,0,0.027,0,0.04c0.186,0.04,0.371,0.08,0.556,0.12c0,0.014,0,0.027,0,0.039c0.026,0,0.053,0,0.08,0c0,0.013,0,0.026,0,0.04
		c0.053,0,0.106,0,0.159,0c0,0.013,0,0.026,0,0.04c0.04,0,0.081,0,0.12,0c0,0.013,0,0.026,0,0.04c0.08,0,0.159,0,0.238,0
		c0.014,0.026,0.026,0.053,0.04,0.079c0.08,0,0.159,0,0.239,0c0,0.014,0,0.025,0,0.04c0.052,0,0.105,0,0.157,0
		c0,0.013,0,0.025,0,0.039c0.08,0,0.16,0,0.239,0c0,0.014,0,0.026,0,0.039c0.092,0,0.186,0,0.278,0c0,0.015,0,0.027,0,0.04
		c0.04,0,0.08,0,0.119,0c0,0.014,0,0.027,0,0.04c0.12,0,0.239,0,0.358,0c0,0.015,0,0.026,0,0.039c0.08,0,0.159,0,0.238,0
		c0,0.014,0,0.027,0,0.04c0.159,0,0.318,0,0.477,0c0.383,0.112,0.969,0.08,1.469,0.08c0.517,0,1.033,0,1.551,0
		c0,0.013,0,0.026,0,0.04c0.078,0,0.158,0,0.237,0c0,0.013,0,0.026,0,0.039c0.08,0,0.16,0,0.239,0c0,0.013,0,0.026,0,0.04
		c0.025,0,0.052,0,0.08,0c0,0.013,0,0.026,0,0.04c0.105,0.013,0.21,0.026,0.317,0.04c0,0.013,0,0.025,0,0.039
		c0.027,0,0.053,0,0.08,0c0,0.014,0,0.026,0,0.04c0.04,0,0.08,0,0.12,0c0,0.013,0,0.025,0,0.039c0.025,0,0.053,0,0.078,0
		c0,0.014,0,0.026,0,0.039c0.027,0,0.054,0,0.08,0c0.014,0.027,0.027,0.055,0.04,0.08c0.04,0,0.08,0,0.12,0
		c0.013,0.027,0.027,0.054,0.04,0.079c0.04,0.013,0.08,0.027,0.119,0.04c0,0.013,0,0.026,0,0.04c0.04,0.013,0.08,0.026,0.12,0.04
		c0,0.026,0,0.053,0,0.079c0.025,0,0.052,0,0.079,0c0,0.026,0,0.053,0,0.079c0.025,0,0.051,0,0.078,0
		c0.029,0.104,0.063,0.13,0.119,0.199c0.013,0,0.025,0,0.04,0c0,0.026,0,0.053,0,0.079c0.027,0.013,0.053,0.027,0.08,0.04
		c0,0.026,0,0.052,0,0.079c0.027,0.013,0.053,0.027,0.079,0.04c0.013,0.066,0.025,0.132,0.04,0.198c0.013,0,0.025,0,0.04,0
		c0,0.026,0,0.054,0,0.08c0.013,0,0.025,0,0.038,0c0.015,0.078,0.027,0.158,0.04,0.238c0.015,0,0.027,0,0.04,0
		c0,0.066,0,0.132,0,0.198c0.174,0.573-0.059,1.419-0.277,1.748c-0.053,0.039-0.107,0.079-0.159,0.119c0,0.026,0,0.053,0,0.078
		c-0.027,0.015-0.053,0.027-0.08,0.04c-0.119,0.133-0.237,0.266-0.357,0.398c-0.025,0-0.052,0-0.08,0c0,0.025,0,0.053,0,0.079
		c-0.04,0.014-0.08,0.026-0.12,0.04c0,0.014,0,0.026,0,0.039c-0.025,0-0.052,0-0.078,0c-0.015,0.026-0.027,0.053-0.042,0.079
		c-0.053,0.013-0.105,0.027-0.158,0.04c-0.015,0.027-0.027,0.053-0.04,0.08c-0.027,0-0.052,0-0.08,0
		c-0.013,0.025-0.025,0.052-0.04,0.079c-0.027,0-0.052,0-0.08,0c-0.013,0.025-0.027,0.053-0.04,0.08c-0.04,0-0.08,0-0.12,0
		c-0.013,0.026-0.025,0.053-0.038,0.079c-0.08,0.013-0.159,0.025-0.239,0.039c0,0.014,0,0.026,0,0.04c-0.027,0-0.054,0-0.08,0
		c0,0.014,0,0.026,0,0.039c-0.04,0-0.08,0-0.12,0c-0.013,0.027-0.027,0.054-0.04,0.081c-0.04,0-0.078,0-0.118,0
		c0,0.013,0,0.025,0,0.038c-0.027,0-0.053,0-0.08,0c0,0.014,0,0.027,0,0.04c-0.052,0-0.106,0-0.159,0c0,0.014,0,0.027,0,0.04
		c-0.027,0-0.053,0-0.08,0c0,0.013,0,0.027,0,0.04c-0.053,0-0.107,0-0.159,0c0,0.013,0,0.026,0,0.04c-0.04,0-0.079,0-0.119,0
		c0,0.013,0,0.025,0,0.039c-0.081,0-0.159,0-0.239,0c0,0.013,0,0.027,0,0.04c-0.079,0-0.159,0-0.238,0c0,0.013,0,0.025,0,0.04
		c-0.039,0-0.079,0-0.12,0c0,0.013,0,0.025,0,0.039c-0.105,0-0.211,0-0.318,0c0,0.014,0,0.026,0,0.04c-0.105,0-0.212,0-0.317,0
		c0,0.014,0,0.026,0,0.039c-0.212,0-0.425,0-0.636,0c-0.348,0-0.684-0.003-0.954-0.079c-0.198-0.014-0.396-0.026-0.596-0.039
		c0-0.015,0-0.027,0-0.04c-0.225-0.013-0.45-0.027-0.676-0.04c0-0.014,0-0.026,0-0.039c-0.052,0-0.105,0-0.157,0
		c0-0.014,0-0.027,0-0.04c-0.108,0-0.213,0-0.319,0c0-0.013,0-0.027,0-0.04c-0.026,0-0.053,0-0.08,0c0-0.013,0-0.026,0-0.04
		c-0.078,0-0.158,0-0.238,0c0-0.013,0-0.026,0-0.04c-0.04,0-0.079,0-0.12,0c0-0.013,0-0.025,0-0.038c-0.065,0-0.131,0-0.197,0
		c0-0.014,0-0.027,0-0.041c-0.026,0-0.053,0-0.08,0c0-0.013,0-0.026,0-0.04c-0.067,0-0.133,0-0.199,0c0-0.013,0-0.025,0-0.039
		c-0.039,0-0.08,0-0.118,0c0-0.014,0-0.026,0-0.04c-0.119-0.014-0.238-0.026-0.358-0.039c0-0.014,0-0.026,0-0.039
		c-0.027,0-0.053,0-0.08,0c0-0.014,0-0.027,0-0.04c-0.054,0-0.105,0-0.159,0c0-0.015,0-0.027,0-0.041c-0.026,0-0.052,0-0.08,0
		c0-0.014,0-0.026,0-0.039c-0.053,0-0.106,0-0.159,0c-0.014-0.027-0.026-0.054-0.04-0.079c-0.053,0-0.105,0-0.159,0
		c0-0.013,0-0.027,0-0.04c-0.026,0-0.052,0-0.079,0c0-0.013,0-0.026,0-0.04c-0.092-0.013-0.187-0.027-0.279-0.04
		c-0.014-0.026-0.026-0.053-0.04-0.079c-0.039,0-0.079,0-0.119,0c0-0.013,0-0.025,0-0.039c-0.026,0-0.052,0-0.079,0
		c0-0.014,0-0.026,0-0.04c-0.04,0-0.08,0-0.12,0c0-0.014,0-0.026,0-0.04c-0.12-0.039-0.238-0.079-0.357-0.119
		c-0.013-0.026-0.026-0.053-0.04-0.079c-0.039,0-0.08,0-0.119,0c-0.097-0.045-0.126-0.106-0.278-0.119c0-0.027,0-0.053,0-0.08
		c-0.091-0.013-0.104-0.004-0.16-0.04c0-0.013,0-0.025,0-0.04c-0.039,0-0.08,0-0.119,0c-0.014-0.025-0.026-0.052-0.04-0.078
		c-0.026,0-0.054,0-0.081,0c0-0.014,0-0.026,0-0.04c-0.039,0-0.08,0-0.119,0c-0.013-0.026-0.026-0.054-0.039-0.079
		c-0.027,0-0.054,0-0.08,0c-0.014-0.027-0.026-0.053-0.04-0.079c-0.079-0.027-0.16-0.054-0.238-0.08
		c-0.014-0.027-0.027-0.054-0.041-0.08c-0.026,0-0.053,0-0.079,0c-0.014-0.025-0.026-0.052-0.04-0.079
		c-0.054-0.013-0.106-0.026-0.159-0.04c-0.013-0.025-0.026-0.053-0.04-0.08c-0.026,0-0.053,0-0.079,0
		c-0.013-0.025-0.026-0.052-0.042-0.078c-0.026,0-0.052,0-0.079,0c-0.014-0.026-0.026-0.054-0.04-0.079c-0.026,0-0.053,0-0.079,0
		c-0.014-0.027-0.026-0.054-0.04-0.079c-0.053-0.014-0.106-0.026-0.158-0.04c-0.014-0.027-0.026-0.054-0.04-0.08
		c-0.026,0-0.053,0-0.08,0c-0.015-0.026-0.027-0.053-0.04-0.079c-0.073-0.066-0.168-0.133-0.278-0.16c0-0.025,0-0.052,0-0.077
		c-0.137-0.038-0.103-0.086-0.238-0.12c0-0.027,0-0.054,0-0.079c-0.027,0-0.053,0-0.08,0c0-0.027,0-0.053,0-0.08
		c-0.04-0.026-0.08-0.053-0.12-0.08c-0.105-0.108-0.184-0.278-0.318-0.356c0-0.027,0-0.053,0-0.08
		c-0.161-0.047-0.045-0.016-0.119-0.119c-0.027-0.013-0.053-0.026-0.08-0.04c0-0.026,0-0.053,0-0.079
		c-0.026-0.013-0.053-0.025-0.079-0.039c0-0.026,0-0.054,0-0.08c-0.054-0.04-0.106-0.08-0.16-0.118
		c-0.013-0.054-0.026-0.107-0.039-0.16c-0.028-0.013-0.054-0.026-0.081-0.039c0-0.027,0-0.053,0-0.08
		c-0.026-0.013-0.052-0.025-0.079-0.039c0-0.026,0-0.054,0-0.079c-0.026-0.014-0.053-0.026-0.08-0.04
		c-0.013-0.054-0.026-0.106-0.039-0.159l-0.08-0.079c0-0.027,0-0.054,0-0.08c-0.026-0.013-0.054-0.027-0.08-0.04
		c-0.039-0.118-0.08-0.237-0.119-0.356c-0.015,0-0.028,0-0.041,0c0-0.027,0-0.054,0-0.08c-0.014,0-0.026,0-0.04,0
		c-0.014-0.053-0.026-0.106-0.04-0.159c-0.013,0-0.026,0-0.039,0c0-0.04,0-0.079,0-0.119c-0.014,0-0.026,0-0.04,0
		c0-0.025,0-0.053,0-0.079c-0.014,0-0.026,0-0.04,0c0-0.039,0-0.079,0-0.118c-0.013,0-0.026,0-0.039,0c0-0.027,0-0.054,0-0.08
		c-0.014,0-0.027,0-0.041,0c-0.026-0.132-0.053-0.266-0.079-0.396c-0.013,0-0.026,0-0.04,0c0-0.04,0-0.081,0-0.119
		c-0.013,0-0.026,0-0.039,0c0-0.04,0-0.08,0-0.12c-0.015,0-0.027,0-0.041,0c0-0.066,0-0.132,0-0.199c-0.014,0-0.027,0-0.041,0
		c-0.013-0.118-0.026-0.238-0.039-0.356c-0.013,0-0.026,0-0.039,0c0-0.093,0-0.186,0-0.278c-0.015,0-0.027,0-0.041,0
		c0-0.146,0-0.291,0-0.438c-0.035-0.123-0.09-0.816-0.039-0.992c0.013,0,0.026,0,0.039,0c0-0.133,0-0.266,0-0.397
		c0.054-0.179,0.105-0.458,0.16-0.636c0-0.066,0-0.133,0-0.198c0.013,0,0.026,0,0.041,0c0-0.04,0-0.08,0-0.12
		c0.013,0,0.026,0,0.039,0c0-0.052,0-0.104,0-0.159c0.014,0,0.026,0,0.04,0c0-0.053,0-0.104,0-0.157c0.014,0,0.026,0,0.04,0
		c0.013-0.107,0.026-0.212,0.039-0.319c0.238-0.688,0.477-1.376,0.715-2.064c0.013,0,0.026,0,0.039,0c0-0.027,0-0.054,0-0.08
		c0.014,0,0.027,0,0.04,0c0.014-0.079,0.026-0.159,0.04-0.238c0.013,0,0.027,0,0.041,0c0.013-0.053,0.026-0.105,0.039-0.158
		c0.014,0,0.027,0,0.041,0c0-0.039,0-0.079,0-0.119c0.013,0,0.026,0,0.039,0c0.014-0.054,0.026-0.107,0.04-0.159
		c0.014,0,0.026,0,0.04,0c0-0.04,0-0.08,0-0.12c0.012,0,0.026,0,0.039,0c0.014-0.053,0.027-0.104,0.04-0.158c0.014,0,0.026,0,0.04,0
		c0-0.026,0-0.054,0-0.079c0.012,0,0.026,0,0.04,0c0-0.039,0-0.079,0-0.119c0.014,0,0.026,0,0.04,0c0-0.027,0-0.053,0-0.08
		c0.013,0,0.026,0,0.039,0c0.027-0.079,0.054-0.159,0.081-0.238c0.013,0,0.026,0,0.04,0c0-0.039,0-0.079,0-0.119
		c0.013,0,0.026,0,0.039,0c0-0.026,0-0.054,0-0.08c0.015,0,0.027,0,0.041,0c0.013-0.052,0.026-0.105,0.039-0.158
		c0.014,0,0.027,0,0.04,0c0-0.026,0-0.053,0-0.079c0.014,0,0.026,0,0.04,0c0-0.026,0-0.053,0-0.08c0.013,0,0.026,0,0.039,0
		c0-0.025,0-0.053,0-0.079c0.014,0,0.027,0,0.04,0c0-0.026,0-0.053,0-0.079c0.013,0,0.026,0,0.04,0
		c0.013-0.054,0.027-0.106,0.04-0.159c0.014,0,0.026,0,0.04,0c0-0.026,0-0.052,0-0.079c0.013,0,0.026,0,0.04,0
		c0-0.027,0-0.053,0-0.08c0.013,0,0.026,0,0.039,0c0-0.027,0-0.053,0-0.079l0.081-0.08c0-0.025,0-0.053,0-0.079
		c0.026-0.014,0.053-0.026,0.08-0.039c0.013-0.053,0.025-0.106,0.039-0.159c0.014,0,0.027,0,0.04,0
		c0.026-0.079,0.053-0.159,0.08-0.239c0.013,0,0.026,0,0.039,0c0.014-0.064,0.026-0.132,0.04-0.197
		c0.027-0.014,0.053-0.027,0.08-0.04c0.013-0.053,0.025-0.106,0.04-0.159c0.014,0,0.027,0,0.04,0c0-0.027,0-0.053,0-0.079
		c0.014,0,0.027,0,0.04,0c0.026-0.08,0.053-0.16,0.08-0.238c0.013,0,0.026,0,0.039,0c0-0.039,0-0.079,0-0.119
		c0.014,0,0.026,0,0.04,0c0-0.027,0-0.053,0-0.08c0.013,0,0.027,0,0.04,0c0-0.027,0-0.053,0-0.08c0.026-0.013,0.053-0.026,0.08-0.04
		c0-0.04,0-0.08,0-0.12c0.026-0.013,0.053-0.026,0.079-0.04c0.014-0.052,0.027-0.105,0.04-0.158l0.081-0.08c0-0.027,0-0.053,0-0.08
		c0.013,0,0.026,0,0.04,0c0-0.027,0-0.052,0-0.08c0.013,0,0.026,0,0.039,0c0-0.027,0-0.053,0-0.08c0.014,0,0.026,0,0.04,0
		c0.013-0.053,0.026-0.105,0.04-0.159c0.013,0,0.026,0,0.039,0c0.013-0.053,0.026-0.106,0.041-0.159
		c0.026-0.014,0.053-0.026,0.079-0.039c0-0.027,0-0.053,0-0.08l0.079-0.08c0-0.027,0-0.053,0-0.08c0.014,0,0.026,0,0.041,0
		c0-0.026,0-0.052,0-0.079c0.026-0.014,0.052-0.026,0.078-0.041c0-0.025,0-0.053,0-0.079c0.014,0,0.028,0,0.041,0
		c0-0.026,0-0.053,0-0.08c0.026-0.014,0.054-0.026,0.08-0.039c0.026-0.081,0.054-0.159,0.08-0.239
		c0.026-0.013,0.052-0.026,0.08-0.04c0-0.025,0-0.053,0-0.08c0.026-0.013,0.052-0.025,0.078-0.039c0-0.026,0-0.053,0-0.08
		c0.027-0.014,0.054-0.026,0.08-0.04c0-0.026,0-0.053,0-0.08c0.027-0.014,0.054-0.026,0.081-0.039
		c0.013-0.053,0.026-0.107,0.04-0.159c0.026-0.013,0.053-0.026,0.08-0.04c0.013-0.04,0.026-0.08,0.039-0.12c0.014,0,0.026,0,0.04,0
		c0.014-0.04,0.026-0.079,0.04-0.118c0.026,0,0.053,0,0.08,0c0.044-0.194,0.197-0.351,0.317-0.478
		c0.027-0.013,0.053-0.025,0.08-0.039c0-0.026,0-0.053,0-0.081c0.027-0.013,0.053-0.025,0.08-0.039c0-0.014,0-0.026,0-0.039
		c0.092-0.097,0.197-0.125,0.237-0.279c0.028,0,0.054,0,0.081,0c0-0.026,0-0.053,0-0.08c0.026,0,0.053,0,0.08,0
		c0-0.025,0-0.052,0-0.08c0.137-0.034,0.256-0.167,0.317-0.277c0.026,0,0.053,0,0.081,0c0-0.027,0-0.053,0-0.08
		c0.087-0.024,0.1-0.032,0.158-0.08c0-0.013,0-0.026,0-0.039c0.026,0,0.053,0,0.079,0c0.014-0.027,0.027-0.053,0.04-0.081
		c0.014,0,0.026,0,0.04,0c0.013-0.025,0.026-0.052,0.04-0.079c0.026,0,0.053,0,0.079,0c0.013-0.026,0.027-0.053,0.04-0.079
		c0.04-0.015,0.081-0.027,0.12-0.04c0-0.015,0-0.027,0-0.04c0.053-0.015,0.107-0.027,0.158-0.04c0.014-0.027,0.026-0.053,0.041-0.08
		c0.079-0.026,0.158-0.053,0.238-0.08c0-0.013,0-0.026,0-0.04c0.027,0,0.053,0,0.08,0c0-0.013,0-0.026,0-0.04
		c0.026,0,0.052,0,0.079,0c0-0.013,0-0.026,0-0.04c0.026,0,0.054,0,0.08,0c0-0.013,0-0.025,0-0.039c0.039,0,0.08,0,0.118,0
		c0.014-0.026,0.026-0.053,0.04-0.08c0.079-0.014,0.159-0.026,0.239-0.039c0-0.014,0-0.027,0-0.041c0.026,0,0.052,0,0.079,0
		c0-0.013,0-0.026,0-0.04c0.066,0,0.132,0,0.198,0c0.014-0.026,0.026-0.053,0.04-0.079c0.067,0,0.133,0,0.199,0
		c0-0.014,0-0.027,0-0.04c0.053,0,0.106,0,0.158,0c0-0.013,0-0.027,0-0.04c0.079,0,0.159,0,0.238,0c0-0.013,0-0.026,0-0.04
		c0.041,0,0.08,0,0.12,0c0-0.013,0-0.027,0-0.04c0.172,0,0.344,0,0.516,0c0.275-0.078,0.73-0.04,1.073-0.04c0.674,0,1.35,0,2.026,0
		c1.667,0,3.336,0,5.005,0c0.768,0.013,1.535,0.027,2.304,0.04c0,0.013,0,0.027,0,0.04c0.039,0,0.079,0,0.119,0
		c0,0.014,0,0.027,0,0.04c0.093,0,0.185,0,0.277,0c0,0.013,0,0.027,0,0.04c0.04,0,0.079,0,0.119,0c0,0.013,0,0.026,0,0.04
		c0.067,0,0.133,0,0.199,0c0,0.013,0,0.026,0,0.04c0.025,0,0.053,0,0.08,0c0,0.013,0,0.025,0,0.039c0.053,0,0.104,0,0.157,0
		c0,0.014,0,0.026,0,0.04c0.027,0,0.053,0,0.08,0c0,0.014,0,0.027,0,0.041c0.092,0.013,0.187,0.025,0.278,0.039
		c0.013,0.026,0.027,0.053,0.04,0.08c0.038,0,0.078,0,0.118,0c0.015,0.026,0.027,0.052,0.04,0.079c0.039,0,0.079,0,0.119,0
		c0.015,0.027,0.027,0.054,0.04,0.08c0.079,0.027,0.159,0.053,0.239,0.08c0.013,0.027,0.025,0.052,0.038,0.08
		c0.026,0,0.054,0,0.079,0c0,0.013,0,0.025,0,0.04c0.027,0,0.055,0,0.08,0c0,0.012,0,0.025,0,0.04
		c0.04,0.013,0.079,0.025,0.119,0.04c0,0.025,0,0.052,0,0.079c0.108,0.028,0.091,0.054,0.199,0.079c0,0.027,0,0.054,0,0.081
		c0.053,0.013,0.105,0.026,0.157,0.039c0,0.027,0,0.054,0,0.08c0.027,0,0.055,0,0.082,0c0,0.027,0,0.053,0,0.08
		c0.114,0.029,0.13,0.042,0.157,0.159c0.027,0,0.055,0,0.08,0c0,0.025,0,0.053,0,0.078c0.027,0,0.053,0,0.079,0
		c0.053,0.067,0.105,0.133,0.158,0.199c0.013,0,0.027,0,0.04,0c0,0.027,0,0.052,0,0.08c0.081,0.067,0.159,0.132,0.238,0.199
		c0,0.025,0,0.052,0,0.078c0.027,0.015,0.053,0.027,0.08,0.04c0.013,0.041,0.027,0.08,0.04,0.12c0.053,0.04,0.104,0.08,0.157,0.119
		c0,0.027,0,0.054,0,0.08c0.029,0.013,0.055,0.026,0.082,0.04c0.013,0.04,0.025,0.08,0.039,0.119c0.013,0,0.025,0,0.038,0
		c0,0.026,0,0.054,0,0.081c0.027,0.013,0.055,0.025,0.08,0.039c0,0.026,0,0.053,0,0.079c0.04,0.027,0.08,0.054,0.119,0.08
		c0.013,0.053,0.027,0.106,0.04,0.159c0.025,0.013,0.053,0.026,0.08,0.04c0,0.026,0,0.052,0,0.079
		c0.025,0.014,0.053,0.026,0.079,0.041c0,0.025,0,0.053,0,0.079c0.025,0.014,0.053,0.026,0.08,0.04
		c0.013,0.054,0.025,0.106,0.04,0.159c0.025,0.014,0.053,0.027,0.078,0.04c0.026,0.08,0.052,0.158,0.079,0.239
		c0.015,0,0.027,0,0.04,0c0.013,0.039,0.025,0.079,0.04,0.119c0.027,0.014,0.053,0.026,0.079,0.039
		c0.013,0.054,0.025,0.107,0.04,0.159c0.027,0.014,0.053,0.027,0.08,0.04c0.025,0.08,0.053,0.159,0.079,0.238
		c0.025,0.014,0.053,0.026,0.08,0.04c0.025,0.079,0.053,0.16,0.078,0.238c0.027,0.014,0.054,0.027,0.079,0.04
		c0.013,0.04,0.025,0.08,0.04,0.119c0.013,0,0.027,0,0.04,0c0.025,0.08,0.053,0.159,0.08,0.239c0.026,0.013,0.052,0.025,0.079,0.039
		c0.013,0.039,0.025,0.079,0.04,0.119c0.013,0,0.027,0,0.04,0c0,0.027,0,0.053,0,0.08l0.079,0.08c0,0.026,0,0.053,0,0.08
		c0.013,0,0.025,0,0.038,0c0,0.027,0,0.052,0,0.08c0.027,0.013,0.055,0.025,0.08,0.04c0,0.025,0,0.053,0,0.079l0.08,0.078
		c0,0.027,0,0.054,0,0.08c0.013,0,0.026,0,0.039,0c0,0.027,0,0.054,0,0.08c0.025,0.014,0.053,0.026,0.08,0.039
		c0,0.026,0,0.053,0,0.08l0.08,0.08c0,0.026,0,0.052,0,0.079c0.013,0,0.024,0,0.039,0c0,0.025,0,0.053,0,0.079
		c0.027,0.014,0.053,0.026,0.078,0.039c0,0.027,0,0.054,0,0.079l0.08,0.08c0,0.027,0,0.053,0,0.08c0.015,0,0.026,0,0.04,0
		c0,0.026,0,0.052,0,0.079c0.014,0,0.026,0,0.039,0c0.013,0.053,0.027,0.106,0.04,0.159c0.027,0.013,0.053,0.025,0.082,0.039
		c0,0.026,0,0.054,0,0.079l0.077,0.08c0,0.026,0,0.052,0,0.079c0.015,0,0.027,0,0.04,0c0,0.027,0,0.053,0,0.08
		c0.013,0,0.027,0,0.04,0c0,0.027,0,0.053,0,0.079c0.013,0,0.025,0,0.04,0c0,0.026,0,0.053,0,0.079c0.013,0,0.027,0,0.04,0
		c0,0.026,0,0.054,0,0.08c0.012,0,0.024,0,0.037,0c0,0.026,0,0.053,0,0.079c0.015,0,0.027,0,0.042,0c0,0.026,0,0.054,0,0.079
		c0.013,0,0.025,0,0.038,0c0,0.027,0,0.054,0,0.08c0.015,0,0.027,0,0.04,0c0.015,0.053,0.027,0.106,0.04,0.159
		c0.013,0,0.026,0,0.039,0c0,0.026,0,0.053,0,0.078c0.015,0,0.027,0,0.04,0c0,0.04,0,0.08,0,0.12c0.013,0,0.027,0,0.042,0
		c0,0.026,0,0.054,0,0.079c0.025,0.014,0.053,0.026,0.078,0.039c0,0.04,0,0.08,0,0.12c0.014,0,0.026,0,0.039,0
		c0,0.027,0,0.053,0,0.079c0.013,0,0.027,0,0.04,0c0.027,0.08,0.053,0.16,0.08,0.239c0.013,0,0.025,0,0.04,0
		c0,0.039,0,0.079,0,0.118c0.013,0,0.025,0,0.039,0c0,0.026,0,0.053,0,0.079c0.013,0,0.025,0,0.038,0
		c0.015,0.067,0.027,0.134,0.04,0.199c0.015,0,0.027,0,0.04,0c0.027,0.12,0.055,0.237,0.08,0.357c0.014,0,0.025,0,0.039,0
		c0,0.027,0,0.053,0,0.079c0.015,0,0.027,0,0.04,0c0.015,0.093,0.027,0.186,0.04,0.279C39.36,31.399,39.554,32.697,39.329,33.485z"
		/>
	<path fill-rule="evenodd" clip-rule="evenodd" fill="#109298" d="M33.41,33.405c-0.027,0-0.053,0-0.079,0
		c-0.05,0.19-0.517,0.587-0.716,0.636c0,0.026,0,0.054,0,0.08c-0.04,0.013-0.08,0.026-0.119,0.04c0,0.013,0,0.026,0,0.04
		c-0.025,0-0.053,0-0.078,0c-0.015,0.026-0.027,0.052-0.04,0.079c-0.067,0.013-0.132,0.025-0.199,0.039
		c-0.013,0.026-0.027,0.054-0.04,0.08c-0.04,0-0.079,0-0.119,0c-0.013,0.026-0.025,0.053-0.04,0.078c-0.04,0-0.078,0-0.118,0
		c0,0.015,0,0.027,0,0.04c-0.026,0-0.054,0-0.079,0c0,0.014,0,0.027,0,0.04c-0.067,0.013-0.133,0.026-0.199,0.04
		c0,0.014,0,0.027,0,0.04c-0.04,0-0.08,0-0.12,0c0,0.014,0,0.026,0,0.039c-0.039,0-0.079,0-0.117,0c0,0.013,0,0.026,0,0.04
		c-0.08,0-0.159,0-0.239,0c-0.424,0.123-0.977,0.177-1.429,0.04c-0.093,0-0.187,0-0.279,0c0-0.014,0-0.027,0-0.04
		c-0.066,0-0.132,0-0.199,0c0-0.014,0-0.027,0-0.04c-0.04,0-0.079,0-0.117,0c0-0.013,0-0.025,0-0.039c-0.055,0-0.107,0-0.161,0
		c-0.013-0.026-0.025-0.054-0.038-0.08c-0.12-0.026-0.239-0.053-0.357-0.08c-0.015-0.025-0.028-0.052-0.041-0.078
		c-0.025,0-0.053,0-0.08,0c0-0.014,0-0.026,0-0.039c-0.025,0-0.053,0-0.08,0l-0.077-0.08c-0.027,0-0.053,0-0.08,0
		c0-0.014,0-0.027,0-0.039c-0.04-0.014-0.08-0.027-0.119-0.04c-0.013-0.027-0.025-0.054-0.04-0.08c-0.025,0-0.053,0-0.08,0
		c-0.013-0.026-0.025-0.054-0.04-0.08c-0.026,0-0.052,0-0.079,0c-0.013-0.025-0.025-0.052-0.04-0.079c-0.025,0-0.053,0-0.078,0
		c-0.103-0.071-0.066-0.15-0.239-0.198c0-0.026,0-0.054,0-0.079c-0.231-0.134-0.405-0.413-0.556-0.636
		c-0.027-0.013-0.052-0.027-0.08-0.04c-0.013-0.053-0.025-0.105-0.04-0.159c-0.025-0.013-0.052-0.026-0.078-0.04
		c-0.39-0.619-0.745-2.002-0.438-2.939c0.013-0.104,0.027-0.212,0.04-0.316c0.013,0,0.025,0,0.04,0
		c0.027-0.12,0.053-0.239,0.08-0.358c0.013,0,0.027,0,0.04,0c0.025-0.079,0.053-0.159,0.08-0.237c0.013,0,0.025,0,0.04,0
		c0-0.027,0-0.053,0-0.08c0.013,0,0.025,0,0.04,0c0-0.026,0-0.053,0-0.08c0.013,0,0.025,0,0.038,0
		c0.027-0.079,0.054-0.158,0.08-0.238c0.04-0.025,0.08-0.053,0.12-0.079c0.013-0.054,0.025-0.106,0.04-0.158
		c0.027-0.013,0.054-0.027,0.08-0.04c0-0.014,0-0.027,0-0.04c0.027-0.013,0.052-0.027,0.08-0.04c0-0.027,0-0.053,0-0.079
		c0.013,0,0.027,0,0.04,0c0.047-0.059,0.055-0.071,0.08-0.159c0.025,0,0.052,0,0.079,0c0.065-0.111,0.16-0.135,0.197-0.277
		c0.025,0,0.055,0,0.08,0c0.072-0.126,0.123-0.121,0.237-0.199c0.015-0.025,0.027-0.053,0.04-0.079c0.027,0,0.053,0,0.079,0
		c0.027-0.04,0.053-0.079,0.082-0.119c0.053-0.013,0.104-0.026,0.157-0.039c0.015-0.027,0.027-0.054,0.04-0.08
		c0.08-0.027,0.157-0.054,0.237-0.08c0-0.013,0-0.025,0-0.039c0.027,0,0.055,0,0.08,0c0.013-0.026,0.026-0.053,0.041-0.08
		c0.038,0,0.078,0,0.118,0c0-0.013,0-0.026,0-0.04c0.027,0,0.054,0,0.079,0c0-0.013,0-0.026,0-0.04
		c0.067-0.013,0.133-0.024,0.198-0.039c0-0.013,0-0.025,0-0.039c0.054,0,0.106,0,0.161,0c0-0.014,0-0.026,0-0.039
		c0.025,0,0.052,0,0.077,0c0-0.015,0-0.027,0-0.04c0.173-0.015,0.345-0.027,0.519-0.04c0-0.015,0-0.027,0-0.04
		c0.053,0,0.104,0,0.157,0c0-0.013,0-0.026,0-0.04c0.292,0,0.581,0,0.875,0c0,0.013,0,0.027,0,0.04c0.038,0,0.08,0,0.117,0
		c0,0.013,0,0.025,0,0.04c0.107,0,0.212,0,0.317,0c0,0.013,0,0.025,0,0.04c0.067,0,0.134,0,0.201,0c0,0.013,0,0.025,0,0.04
		c0.038,0,0.078,0,0.117,0c0,0.013,0,0.025,0,0.039c0.055,0,0.105,0,0.16,0c0.013,0.026,0.026,0.054,0.039,0.078
		c0.04,0,0.08,0,0.12,0c0,0.014,0,0.027,0,0.04c0.025,0,0.053,0,0.079,0c0,0.014,0,0.027,0,0.04c0.04,0,0.078,0,0.118,0
		c0,0.013,0,0.027,0,0.04c0.027,0,0.053,0,0.08,0c0,0.014,0,0.027,0,0.04c0.026,0,0.052,0,0.079,0
		c0.013,0.026,0.027,0.052,0.04,0.079c0.067,0.013,0.132,0.026,0.199,0.04c0.013,0.026,0.025,0.053,0.04,0.08
		c0.025,0,0.053,0,0.078,0c0.014,0.026,0.026,0.052,0.039,0.079c0.027,0,0.053,0,0.08,0c0.04,0.053,0.08,0.105,0.119,0.158
		c0.027,0,0.055,0,0.08,0c0.027,0.039,0.053,0.079,0.08,0.119c0.025,0,0.052,0,0.079,0c0.093,0.106,0.185,0.212,0.277,0.318
		c0.053,0.039,0.106,0.079,0.159,0.118c0,0.027,0,0.055,0,0.08c0.04,0.026,0.08,0.052,0.12,0.079c0,0.027,0,0.053,0,0.08
		c0.038,0.027,0.079,0.053,0.117,0.079c0,0.026,0,0.053,0,0.079c0.027,0.014,0.055,0.026,0.08,0.04
		c0.027,0.079,0.052,0.159,0.079,0.238c0.027,0.014,0.055,0.027,0.08,0.04c0.119,0.291,0.237,0.583,0.356,0.874
		c0.027,0.198,0.055,0.397,0.082,0.597c0.013,0,0.025,0,0.038,0c0.051,0.177-0.004,0.867-0.038,0.992
		c-0.027,0.198-0.055,0.396-0.082,0.596c-0.119,0.292-0.237,0.582-0.356,0.873c-0.025,0.014-0.053,0.027-0.08,0.04
		c-0.027,0.079-0.052,0.159-0.079,0.239c-0.025,0.013-0.053,0.025-0.08,0.039c0,0.027,0,0.053,0,0.08
		c-0.025,0.013-0.053,0.025-0.079,0.04c-0.013,0.039-0.025,0.078-0.038,0.117c-0.015,0-0.027,0-0.04,0
		C33.443,33.306,33.434,33.317,33.41,33.405z"/>
</g>
</svg>
