<?xml version="1.0" encoding="utf-8"?>
<!-- Generator: Adobe Illustrator 16.0.4, SVG Export Plug-In . SVG Version: 6.00 Build 0)  -->
<!DOCTYPE svg PUBLIC "-//W3C//DTD SVG 1.1//EN" "http://www.w3.org/Graphics/SVG/1.1/DTD/svg11.dtd">
<svg version="1.1" id="Layer_1" xmlns="http://www.w3.org/2000/svg" xmlns:xlink="http://www.w3.org/1999/xlink" x="0px" y="0px"
	 width="51.225px" height="51.622px" viewBox="0 0 51.225 51.622" enable-background="new 0 0 51.225 51.622" xml:space="preserve">
<g>
	<path fill="#109298" d="M21.022,12.1c-10.066,0-18.226,6.275-18.226,14.02c0,3.796,1.966,7.246,5.156,9.771
		c-0.185,2.573-0.805,5.722-2.599,7.42c3.573,0,7.222-2.24,9.531-3.986c1.917,0.526,3.981,0.814,6.138,0.814
		c10.066,0,18.226-6.275,18.226-14.02C39.248,18.375,31.088,12.1,21.022,12.1z"/>
	<path fill="#109298" d="M45.246,27.485c1.534-2.05,2.413-4.433,2.413-6.974c0-7.745-8.159-14.019-18.226-14.019
		c-4.431,0-8.49,1.217-11.646,3.235c1.485-0.279,3.039-0.432,4.636-0.432c10.841,0,19.628,6.906,19.628,15.422
		c0,3.358-1.361,6.463-3.677,8.993c2.297,1.747,5.957,3.992,9.525,3.992C45.361,35.289,45.179,29.948,45.246,27.485z"/>
</g>
</svg>
