<?xml version="1.0" encoding="utf-8"?>
<!-- Generator: Adobe Illustrator 16.0.4, SVG Export Plug-In . SVG Version: 6.00 Build 0)  -->
<!DOCTYPE svg PUBLIC "-//W3C//DTD SVG 1.1//EN" "http://www.w3.org/Graphics/SVG/1.1/DTD/svg11.dtd">
<svg version="1.1" id="Layer_1" xmlns="http://www.w3.org/2000/svg" xmlns:xlink="http://www.w3.org/1999/xlink" x="0px" y="0px"
	 width="612px" height="792px" viewBox="0 0 612 792" enable-background="new 0 0 612 792" xml:space="preserve">
<g>
	<path fill="#109298" d="M370.891,243h-0.602c0,0-83.318-87.707-156.022-21.057c-42.496,38.958-38.355,108.209,5.345,172.345
		c16.629-13.129,42.448-28.707,71.633-28.707c21.171,0,40.555,7.927,57.604,23.562c24.241,22.224,33.956,54.545,27.349,91.007
		c-1.778,9.83-4.791,19.593-8.683,29.251c0.938,0.383,1.836,0.804,2.773,1.187l0.603,2.352
		c165.115-66.65,228.734-224.346,156.021-290.996C454.209,155.293,370.891,243,370.891,243z"/>
	<path fill="#109298" d="M214.171,625.089l0.468-0.708c70.323-28.391,116.893-76.49,135.396-122.715
		c15.262-38.136,11.437-74.989-14.114-98.418c-14.765-13.531-30.093-18.532-44.686-18.532c-24.097,0-46.12,13.617-60.311,24.967
		c-10.117,8.071-16.285,15.004-16.285,15.004h-0.468c0,0-35.343-39.971-76.596-39.981c-14.592,0-29.921,5.001-44.686,18.533
		C36.366,455.058,85.814,573.27,214.171,625.089z"/>
</g>
</svg>
