<?xml version="1.0" encoding="utf-8"?>
<!-- Generator: Adobe Illustrator 16.0.4, SVG Export Plug-In . SVG Version: 6.00 Build 0)  -->
<!DOCTYPE svg PUBLIC "-//W3C//DTD SVG 1.1//EN" "http://www.w3.org/Graphics/SVG/1.1/DTD/svg11.dtd">
<svg version="1.1" id="Capa_1" xmlns="http://www.w3.org/2000/svg" xmlns:xlink="http://www.w3.org/1999/xlink" x="0px" y="0px"
	 width="512px" height="512px" viewBox="0 0 512 512" enable-background="new 0 0 512 512" xml:space="preserve">
<path fill="#109298" d="M512,179.078C512,97.849,446.15,32,364.922,32C321.741,32,282.907,50.609,256,80.245
	C229.093,50.609,190.259,32,147.078,32C65.849,32,0,97.849,0,179.078C0,222.259,18.609,261.093,48.245,288H48l160,160
	c16,16,32,32,48,32s32-16,48-32l160-160h-0.245C493.391,261.093,512,222.259,512,179.078z M420.734,240.616L258.745,402.745
	c-0.839,0.839-1.767,1.766-2.745,2.74c-0.98-0.977-1.907-1.901-2.745-2.74L91.266,240.617C73.683,224.653,64,202.798,64,179.078
	C64,133.269,101.269,96,147.078,96c23.72,0,45.575,9.683,61.538,27.266L256,175.456l47.384-52.189
	C319.348,105.683,341.202,96,364.922,96C410.731,96,448,133.269,448,179.078C448,202.798,438.316,224.653,420.734,240.616z"/>
</svg>
