<?xml version="1.0" encoding="utf-8"?>
<!-- Generator: Adobe Illustrator 16.0.4, SVG Export Plug-In . SVG Version: 6.00 Build 0)  -->
<!DOCTYPE svg PUBLIC "-//W3C//DTD SVG 1.1//EN" "http://www.w3.org/Graphics/SVG/1.1/DTD/svg11.dtd">
<svg version="1.1" id="Layer_1" xmlns="http://www.w3.org/2000/svg" xmlns:xlink="http://www.w3.org/1999/xlink" x="0px" y="0px"
	 width="51.225px" height="51.622px" viewBox="0 0 51.225 51.622" enable-background="new 0 0 51.225 51.622" xml:space="preserve">
<g>
	<path fill="#109298" d="M26.972,28.469c3.905,0,7.084-3.178,7.084-7.084c0-3.339-2.319-6.181-5.507-6.905
		C27.415,7.676,21.503,2.467,14.381,2.467C6.451,2.467,0,8.918,0,16.848c0,7.93,6.451,14.382,14.381,14.382
		c3.599,0,6.884-1.338,9.408-3.528C24.773,28.196,25.855,28.469,26.972,28.469z M32.056,21.385c0,2.805-2.28,5.084-5.084,5.084
		c-0.573,0-1.135-0.104-1.668-0.292c2.149-2.516,3.458-5.77,3.458-9.33c0-0.071-0.011-0.14-0.012-0.21
		C30.693,17.365,32.056,19.223,32.056,21.385z M2,16.848C2,10.021,7.554,4.467,14.381,4.467s12.382,5.554,12.382,12.381
		c0,6.827-5.555,12.382-12.382,12.382S2,23.675,2,16.848z"/>
	<path fill="#109298" d="M43.881,0.467c-2.479,0-4.5,2.019-4.5,4.5c0,2.481,2.021,4.5,4.5,4.5s4.5-2.019,4.5-4.5
		C48.381,2.486,46.361,0.467,43.881,0.467z M43.881,7.467c-1.379,0-2.5-1.122-2.5-2.5s1.121-2.5,2.5-2.5s2.5,1.122,2.5,2.5
		S45.26,7.467,43.881,7.467z"/>
	<path fill="#109298" d="M36.048,32.584c-5.119,0-9.285,4.166-9.285,9.285c0,5.118,4.166,9.284,9.285,9.284
		c5.12,0,9.286-4.166,9.286-9.284C45.334,36.75,41.168,32.584,36.048,32.584z M36.048,49.155c-4.02,0-7.285-3.27-7.285-7.285
		c0-4.019,3.271-7.285,7.285-7.285c4.017,0,7.286,3.27,7.286,7.285C43.334,45.887,40.066,49.155,36.048,49.155z"/>
	<path fill="#109298" d="M6.85,8.456c-2.916,1.768-3.544,5.769-3.57,5.938c-0.041,0.273,0.146,0.527,0.421,0.568
		c0.024,0.004,0.051,0.006,0.075,0.006c0.242,0,0.457-0.178,0.494-0.426c0.004-0.037,0.586-3.709,3.099-5.23
		C7.604,9.169,7.68,8.861,7.536,8.625S7.087,8.315,6.85,8.456z"/>
	<path fill="#109298" d="M32.668,36.806c-2.241,1.051-2.524,4.868-2.537,5.03c-0.021,0.272,0.188,0.514,0.466,0.531
		c0.012,0,0.022,0.002,0.034,0.002c0.261,0,0.479-0.201,0.498-0.468c0.063-0.938,0.546-3.526,1.963-4.19
		c0.25-0.117,0.357-0.414,0.241-0.664C33.216,36.795,32.917,36.688,32.668,36.806z"/>
	<path fill="#109298" d="M43.656,2.977c-1.231,0.246-1.604,2.028-1.644,2.23C41.96,5.478,42.139,5.74,42.41,5.791
		C42.44,5.797,42.472,5.8,42.504,5.8c0.234,0,0.444-0.167,0.49-0.407c0.076-0.412,0.4-1.345,0.855-1.436
		c0.271-0.054,0.444-0.317,0.394-0.588C44.191,3.097,43.922,2.923,43.656,2.977z"/>
</g>
</svg>
