<?xml version="1.0" encoding="utf-8"?>
<!-- Generator: Adobe Illustrator 16.0.4, SVG Export Plug-In . SVG Version: 6.00 Build 0)  -->
<!DOCTYPE svg PUBLIC "-//W3C//DTD SVG 1.1//EN" "http://www.w3.org/Graphics/SVG/1.1/DTD/svg11.dtd">
<svg version="1.1" id="Layer_1" xmlns="http://www.w3.org/2000/svg" xmlns:xlink="http://www.w3.org/1999/xlink" x="0px" y="0px"
	 width="51.225px" height="51.622px" viewBox="0 0 51.225 51.622" enable-background="new 0 0 51.225 51.622" xml:space="preserve">
<g>
	<path fill="#109298" d="M35.682,15.946c-0.169-0.299-0.439-0.463-0.761-0.463c-0.181,0-0.362,0.053-0.514,0.146
		c-0.106,0.05-0.196,0.113-0.274,0.192c-4.801,4.798-8.884,8.779-13.178,12.583l-2.254-2.737c-0.219-0.266-0.462-0.322-0.628-0.322
		c-0.199,0-0.403,0.081-0.559,0.215l-0.037,0.02c-1.221,0.785-2.363,1.445-3.491,2.014c-0.301,0.151-0.476,0.413-0.484,0.723
		c-0.139,0.342-0.058,0.701,0.22,0.967c1.009,0.966,1.947,2.032,2.854,3.064c0.992,1.128,2.018,2.294,3.144,3.337
		c0.04,0.037,0.083,0.072,0.133,0.104c0.167,0.224,0.402,0.351,0.646,0.351c0.174,0,0.345-0.062,0.507-0.184
		c3.146-2.375,5.953-5.055,8.047-7.124c0.614-0.608,1.231-1.214,1.85-1.821c2.164-2.126,4.401-4.325,6.519-6.557
		c0.115-0.122,0.194-0.263,0.234-0.419c0.185-0.288,0.176-0.625-0.026-0.93C36.9,18.002,36.262,16.969,35.682,15.946z
		 M35.674,19.549c-1.56,1.626-3.193,3.237-4.774,4.796c-0.834,0.822-1.668,1.645-2.494,2.472c-2.361,2.363-4.94,4.855-7.812,7.088
		c-0.939-0.918-1.822-1.918-2.676-2.887c-0.667-0.756-1.354-1.535-2.068-2.275c0.645-0.352,1.299-0.734,1.992-1.165l2.338,2.839
		c0.219,0.266,0.464,0.322,0.63,0.322c0.213,0,0.426-0.09,0.603-0.254c0.062-0.035,0.119-0.074,0.17-0.12
		c4.592-4.022,9.001-8.34,13.086-12.415C34.965,18.44,35.296,18.966,35.674,19.549z"/>
</g>
</svg>
