<?xml version="1.0" encoding="utf-8"?>
<!-- Generator: Adobe Illustrator 16.0.4, SVG Export Plug-In . SVG Version: 6.00 Build 0)  -->
<!DOCTYPE svg PUBLIC "-//W3C//DTD SVG 1.1//EN" "http://www.w3.org/Graphics/SVG/1.1/DTD/svg11.dtd">
<svg version="1.1" id="Capa_1" xmlns="http://www.w3.org/2000/svg" xmlns:xlink="http://www.w3.org/1999/xlink" x="0px" y="0px"
	 width="22.896px" height="21.41px" viewBox="0 0 22.896 21.41" enable-background="new 0 0 22.896 21.41" xml:space="preserve">
<path fill="#CC0000" d="M22.274,0.797c0.716,0.809,0.712,0.767,0.493,1.78c-0.42,1.938-0.842,3.876-1.262,5.813
	c-0.386,1.791-0.635,2.066-1.985,3.26L8.96,20.99c-0.733,0.65-1.9,0.54-2.593-0.243l-5.87-6.64
	c-0.691-0.783-0.657-1.955,0.077-2.604l10.527-9.308c1.293-1.143,1.588-1.437,3.328-1.596c2.059-0.19,4.116-0.378,6.176-0.567
	C21.619-0.059,21.567-0.003,22.274,0.797L22.274,0.797z M17.107,2.919c-0.651,0.575-0.713,1.571-0.137,2.222
	c0.575,0.651,1.569,0.712,2.222,0.136c0.652-0.576,0.713-1.57,0.137-2.221C18.753,2.404,17.758,2.343,17.107,2.919z"/>
</svg>
