<?xml version="1.0" encoding="utf-8"?>
<!-- Generator: Adobe Illustrator 16.0.4, SVG Export Plug-In . SVG Version: 6.00 Build 0)  -->
<!DOCTYPE svg PUBLIC "-//W3C//DTD SVG 1.1//EN" "http://www.w3.org/Graphics/SVG/1.1/DTD/svg11.dtd">
<svg version="1.1" id="Capa_1" xmlns="http://www.w3.org/2000/svg" xmlns:xlink="http://www.w3.org/1999/xlink" x="0px" y="0px"
	 width="22.896px" height="21.41px" viewBox="0 0 22.896 21.41" enable-background="new 0 0 22.896 21.41" xml:space="preserve">
<path fill="#CC0000" d="M0.622,0.797c0.707-0.8,0.655-0.856,1.669-0.764C4.35,0.222,6.408,0.41,8.467,0.6
	c1.74,0.159,2.035,0.453,3.328,1.596l10.527,9.308c0.734,0.648,0.769,1.82,0.077,2.604l-5.87,6.639
	c-0.692,0.783-1.859,0.893-2.593,0.243L3.376,11.65c-1.351-1.194-1.6-1.469-1.986-3.26c-0.42-1.937-0.841-3.875-1.261-5.813
	C-0.09,1.564-0.094,1.606,0.622,0.797L0.622,0.797z M3.567,3.056C2.991,3.707,3.052,4.701,3.704,5.277
	C4.356,5.853,5.35,5.792,5.926,5.141C6.502,4.49,6.44,3.494,5.789,2.919C5.138,2.343,4.143,2.404,3.567,3.056z"/>
</svg>
