<?xml version="1.0" encoding="utf-8"?>
<!-- Generator: Adobe Illustrator 16.0.4, SVG Export Plug-In . SVG Version: 6.00 Build 0)  -->
<!DOCTYPE svg PUBLIC "-//W3C//DTD SVG 1.1//EN" "http://www.w3.org/Graphics/SVG/1.1/DTD/svg11.dtd">
<svg version="1.1" id="Layer_1" xmlns="http://www.w3.org/2000/svg" xmlns:xlink="http://www.w3.org/1999/xlink" x="0px" y="0px"
	 width="100px" height="100px" viewBox="0 0 100 100" enable-background="new 0 0 100 100" xml:space="preserve">
<g>
	<path fill="#FFCC00" d="M73.354,84c-0.215,0-0.43-0.034-0.639-0.104l-20.521-6.91l-20.521,6.91
		c-0.614,0.207-1.289,0.103-1.814-0.277c-0.524-0.381-0.831-0.992-0.824-1.641l0.23-21.651L16.35,42.943
		c-0.386-0.52-0.497-1.195-0.297-1.811c0.2-0.616,0.687-1.097,1.305-1.291l20.664-6.473l12.541-17.652
		c0.377-0.528,0.983-0.842,1.631-0.842l0,0c0.647,0,1.256,0.313,1.632,0.842l12.54,17.653l20.664,6.472
		c0.617,0.194,1.104,0.675,1.305,1.291c0.2,0.616,0.09,1.291-0.297,1.811L75.123,60.326l0.23,21.652
		c0.006,0.646-0.302,1.258-0.824,1.64C74.184,83.869,73.771,84,73.354,84z"/>
</g>
</svg>
