<?xml version="1.0" encoding="utf-8"?>
<!-- Generator: Adobe Illustrator 16.0.4, SVG Export Plug-In . SVG Version: 6.00 Build 0)  -->
<!DOCTYPE svg PUBLIC "-//W3C//DTD SVG 1.1//EN" "http://www.w3.org/Graphics/SVG/1.1/DTD/svg11.dtd">
<svg version="1.1" id="Layer_1" xmlns="http://www.w3.org/2000/svg" xmlns:xlink="http://www.w3.org/1999/xlink" x="0px" y="0px"
	 width="51.224px" height="51.622px" viewBox="0 0 51.224 51.622" enable-background="new 0 0 51.224 51.622" xml:space="preserve">
<g>
	<path fill="#109298" d="M26.972,28.47c3.906,0,7.084-3.179,7.084-7.085c0-3.339-2.319-6.181-5.506-6.905
		C27.415,7.676,21.503,2.467,14.381,2.467C6.451,2.467,0,8.918,0,16.848s6.451,14.382,14.381,14.382
		c3.598,0,6.883-1.338,9.408-3.529C24.773,28.196,25.855,28.47,26.972,28.47z M32.056,21.385c0,2.805-2.28,5.085-5.084,5.085
		c-0.573,0-1.134-0.105-1.668-0.292c2.15-2.516,3.458-5.77,3.458-9.33c0-0.071-0.01-0.14-0.011-0.21
		C30.693,17.365,32.056,19.223,32.056,21.385z M2,16.848C2,10.021,7.554,4.467,14.381,4.467s12.381,5.554,12.381,12.381
		c0,6.827-5.554,12.382-12.381,12.382S2,23.675,2,16.848z"/>
	<path fill="#109298" d="M43.881,0.467c-2.48,0-4.5,2.019-4.5,4.5s2.02,4.5,4.5,4.5s4.5-2.019,4.5-4.5S46.361,0.467,43.881,0.467z
		 M43.881,7.467c-1.379,0-2.5-1.122-2.5-2.5s1.121-2.5,2.5-2.5s2.5,1.122,2.5,2.5S45.26,7.467,43.881,7.467z"/>
	<path fill="#109298" d="M36.048,32.584c-5.12,0-9.286,4.166-9.286,9.286c0,5.119,4.166,9.285,9.286,9.285s9.286-4.166,9.286-9.285
		C45.334,36.75,41.168,32.584,36.048,32.584z M36.048,49.155c-4.019,0-7.286-3.27-7.286-7.285c0-4.019,3.27-7.286,7.286-7.286
		s7.286,3.269,7.286,7.286C43.334,45.887,40.066,49.155,36.048,49.155z"/>
	<path fill="#109298" d="M6.85,8.456c-2.916,1.768-3.544,5.769-3.57,5.938c-0.041,0.273,0.147,0.527,0.42,0.568
		c0.025,0.004,0.051,0.006,0.076,0.006c0.242,0,0.457-0.178,0.494-0.426c0.004-0.037,0.586-3.709,3.098-5.23
		C7.604,9.169,7.68,8.861,7.536,8.625C7.393,8.389,7.087,8.315,6.85,8.456z"/>
	<path fill="#109298" d="M32.668,36.806c-2.241,1.051-2.525,4.868-2.537,5.03c-0.02,0.274,0.189,0.514,0.465,0.532
		c0.012,0,0.023,0.002,0.035,0.002c0.26,0,0.479-0.202,0.498-0.467c0.064-0.939,0.546-3.527,1.963-4.191
		c0.25-0.117,0.357-0.415,0.241-0.665C33.216,36.796,32.917,36.688,32.668,36.806z"/>
	<path fill="#109298" d="M43.656,2.977c-1.232,0.246-1.604,2.028-1.644,2.23c-0.052,0.271,0.127,0.533,0.398,0.584
		c0.03,0.006,0.062,0.009,0.094,0.009c0.235,0,0.444-0.167,0.49-0.407c0.077-0.412,0.401-1.345,0.856-1.436
		c0.271-0.054,0.445-0.317,0.393-0.588C44.191,3.097,43.922,2.923,43.656,2.977z"/>
</g>
</svg>
