<?xml version="1.0" encoding="utf-8"?>
<!-- Generator: Adobe Illustrator 16.0.4, SVG Export Plug-In . SVG Version: 6.00 Build 0)  -->
<!DOCTYPE svg PUBLIC "-//W3C//DTD SVG 1.1//EN" "http://www.w3.org/Graphics/SVG/1.1/DTD/svg11.dtd">
<svg version="1.1" id="Layer_1" xmlns="http://www.w3.org/2000/svg" xmlns:xlink="http://www.w3.org/1999/xlink" x="0px" y="0px"
	 width="51.224px" height="51.622px" viewBox="0 0 51.224 51.622" enable-background="new 0 0 51.224 51.622" xml:space="preserve">
<g>
	<path fill="#109298" d="M3.034,24.612c-0.021,0.395-0.033,0.793-0.033,1.194c0,0.43,0.016,0.857,0.041,1.281
		c-2.298,1.028-3.536,3.612-2.811,6.094c0.663,2.221,2.696,3.656,4.9,3.656c0.258,0,0.519-0.023,0.781-0.063
		c0.409,0.716,0.855,1.409,1.339,2.073c-1.376,2.102-1.028,4.957,0.933,6.65c0.962,0.834,2.151,1.242,3.335,1.242
		c1.215,0,2.421-0.436,3.378-1.281c0.727,0.385,1.478,0.726,2.248,1.027c-0.022,2.517,1.823,4.727,4.384,5.085
		c0.238,0.034,0.484,0.052,0.714,0.052c2.278,0,4.267-1.521,4.891-3.708c0.834-0.072,1.656-0.188,2.461-0.35
		c0.951,1.501,2.6,2.373,4.311,2.373c0.715,0,1.437-0.145,2.126-0.46c2.351-1.076,3.484-3.723,2.746-6.131
		c0.649-0.504,1.271-1.045,1.86-1.615c0.693,0.322,1.427,0.482,2.155,0.482c1.685,0,3.325-0.825,4.305-2.339
		c1.398-2.178,0.927-5.012-0.985-6.64c0.275-0.773,0.507-1.566,0.695-2.377c2.49-0.338,4.416-2.47,4.416-5.051
		c0-0.008,0-0.025,0-0.034c0-0.025,0-0.042,0-0.068c-0.016-2.587-1.94-4.706-4.437-5.036c-0.191-0.809-0.426-1.603-0.703-2.376
		c1.907-1.643,2.365-4.472,0.955-6.639c-1.407-2.171-4.188-2.91-6.464-1.832c-0.593-0.57-1.215-1.106-1.866-1.608
		c0.729-2.412-0.413-5.05-2.778-6.12c-2.35-1.062-5.087-0.192-6.425,1.94c-0.8-0.158-1.617-0.27-2.445-0.339
		c-0.696-2.415-3.083-4.009-5.633-3.643c-2.561,0.375-4.393,2.592-4.367,5.112c-0.77,0.304-1.519,0.648-2.243,1.033
		c-1.894-1.663-4.766-1.713-6.708-0.012C6.157,7.888,5.815,10.742,7.2,12.843c-0.479,0.665-0.924,1.357-1.33,2.073
		c-2.496-0.377-4.938,1.133-5.664,3.618C-0.52,21.014,0.731,23.595,3.034,24.612z M5.574,25.02c2.023-0.189,3.831-1.567,4.431-3.636
		c0.604-2.069-0.168-4.211-1.774-5.458C8.505,15.457,8.798,15,9.108,14.557c0.733,0.377,1.541,0.575,2.35,0.575
		c1.191,0,2.383-0.408,3.352-1.25c1.629-1.42,2.135-3.642,1.452-5.561c0.479-0.246,0.969-0.475,1.472-0.681
		c0.894,1.557,2.566,2.567,4.417,2.567c0.246,0,0.493-0.017,0.74-0.051c2.141-0.313,3.771-1.912,4.235-3.898
		c0.543,0.053,1.078,0.133,1.606,0.229c-0.1,2.031,1.02,4.01,2.986,4.902c0.689,0.315,1.402,0.459,2.108,0.459
		c1.319,0,2.59-0.524,3.54-1.445c0.427,0.337,0.84,0.692,1.237,1.064c-1.182,1.657-1.304,3.929-0.124,5.739h-0.01
		c0.986,1.506,2.619,2.331,4.287,2.331c0.337,0,0.677-0.046,1.012-0.115c0.176,0.509,0.336,1.027,0.469,1.556
		c-1.896,0.75-3.237,2.602-3.225,4.769c0,0,0,0.008,0,0.017c0,0.017,0,0.025,0,0.042c0,2.16,1.343,4.004,3.243,4.749
		c-0.132,0.527-0.286,1.045-0.46,1.555c-1.996-0.398-4.12,0.426-5.292,2.236c-1.166,1.816-1.031,4.09,0.156,5.744
		c-0.396,0.373-0.804,0.729-1.228,1.067c-1.466-1.407-3.696-1.857-5.656-0.96c-1.961,0.898-3.078,2.885-2.97,4.915
		c-0.528,0.099-1.062,0.181-1.603,0.235c-0.47-1.986-2.105-3.582-4.247-3.883c-2.135-0.299-4.148,0.771-5.152,2.538
		c-0.502-0.206-0.993-0.431-1.474-0.675c0.673-1.922,0.156-4.142-1.472-5.555c-1.635-1.406-3.904-1.597-5.709-0.654
		c-0.311-0.441-0.605-0.895-0.881-1.361c1.602-1.254,2.361-3.399,1.749-5.469c-0.606-2.066-2.415-3.453-4.445-3.633
		c-0.013-0.282-0.021-0.565-0.021-0.85C5.553,25.542,5.563,25.28,5.574,25.02z"/>
</g>
</svg>
